<svg xmlns="http://www.w3.org/2000/svg" viewBox="0 0 1495.56 325"><defs><style>.a{fill:#100e1b;}</style></defs><title>logo</title><path class="a" d="M286.93,137.08a122.81,122.81,0,0,0-10.57-31A129.22,129.22,0,0,0,244.31,65a126.82,126.82,0,0,0-33.94-21,124.56,124.56,0,0,0-33-8.91c-4-.49-8-.91-12-1-4.79-.14-9.58,0-14.34.28-4.24.25-8.45.78-12.65,1.45a123.93,123.93,0,0,0-23.6,6.37c-1.13.42-2.23.88-3.43,1.38.21.35.36.63.51.91a51.14,51.14,0,0,1,6.55,24.87,54.76,54.76,0,0,1-.81,9.75,50.79,50.79,0,0,1-13.42,26.87A51.79,51.79,0,0,1,68.91,122.5a51.2,51.2,0,0,1-17.85-2,52.94,52.94,0,0,1-11-4.65,3.29,3.29,0,0,0-.22.35,128.91,128.91,0,0,0-7.65,29.66A130.84,130.84,0,0,0,31.05,160c-.07,2.71-.07,5.42,0,8.17a135.4,135.4,0,0,0,2,18.49,127.32,127.32,0,0,0,12.29,36.1,130.26,130.26,0,0,0,26.16,34.66,128.39,128.39,0,0,0,86.69,35.25c1.87,0,3.73.07,5.63,0a124.25,124.25,0,0,0,24.44-3A129.73,129.73,0,0,0,267.4,235.9,125.33,125.33,0,0,0,275.63,222a129.07,129.07,0,0,0,14-54.35,112.69,112.69,0,0,0-.55-16.52C288.54,146.41,287.85,141.73,286.93,137.08ZM206.24,174.9c-3.08,12.54-10.39,22.51-22.61,29.76a44.16,44.16,0,0,1-19.17,6c-1.17.07-2.3.14-3.44.14a46.38,46.38,0,0,1-32.81-12.61,45.1,45.1,0,0,1-14.52-26.31,47.11,47.11,0,0,1,2.19-25.36s0-.07,0-.1a48.33,48.33,0,0,1,10.46-16.17,44.93,44.93,0,0,1,26.3-13.77A47.45,47.45,0,0,1,207,154.83c.52,2.82.7,5.67.95,8A58.35,58.35,0,0,1,206.24,174.9Z"/><polygon class="a" points="496.21 96.95 475.21 191.58 454.45 96.95 410.76 96.95 390 191.58 368.99 96.95 327.71 96.95 368.03 231.65 412.45 231.65 431.51 151.99 450.35 231.65 494.76 231.65 535.07 96.95 496.21 96.95"/><path class="a" d="M781.86,114.58Q768.09,95.5,742.39,95.5t-43.57,19.44Q681,134.37,681,164.54T698.82,214q17.86,19.31,43,19.31t40.07-21.24v18.83q0,16.41-7.49,24a25.31,25.31,0,0,1-18.82,7.61q-23.17,0-29-15.21H686q2.4,25.83,20.51,38.38t49,12.55q17.61,0,31-5.3t21.13-15q15.43-18.84,15.45-47.07V97H781.86Zm-8.93,74.35q-8.94,8.69-20.52,8.68T731.89,189q-8.92-8.56-8.94-24.5t8.94-24.62q8.93-8.68,20.52-8.69t20.52,8.57q8.93,8.58,8.93,24.5T772.93,188.93Z"/><path class="a" d="M1117.63,170.09q0,13-6.88,20.16t-19,7.12q-12.08,0-19-7.12T1066,170.09V97h-41v78.7q0,26.55,14.35,42t37.54,15.45q28,0,40.8-21.24v19.79h41.28V97h-41.28Z"/><path class="a" d="M1257.56,95.5q-28,0-40.8,21.25V97h-41.28v134.7h41.28V158.51q0-13,6.88-20.16t18.95-7.12q12.06,0,19,7.12t6.88,20.16v73.14h41V153q0-26.57-14.36-42T1257.56,95.5Z"/><path class="a" d="M614.15,95.94l-23.22-.47c-17.07,0-31.65,6.49-43.51,19.47s-17.86,29.48-17.86,49.6,5.93,36.61,17.86,49.51,26.2,19.3,43,19.3,78.24-1.68,78.24-1.68V146C668.61,118.75,641.42,96.48,614.15,95.94Zm16,72.92v28.76H600.94c-7.69,0-14.5-2.88-20.51-8.57s-8.89-13.86-8.89-24.51,3-18.83,8.89-24.6,12.82-8.73,20.51-8.73,14.58,2.88,20.59,8.57,8.89,13.94,8.89,24.51A41.38,41.38,0,0,1,630.18,168.86Z"/><path class="a" d="M972.69,122.06V97H931.41v134.7h41.28V167.92q0-16.89,7.12-23.65t21.37-6.76h10.13v-42Q987.18,95.5,972.69,122.06Z"/><path class="a" d="M1423.75,100.3l-.69,17.61q-13-19.6-38.69-20.61T1340.06,115q-18.6,18.72-19.8,48.87t15.9,50.15q17.08,20,42.17,21t40.88-19.65l-.74,18.82q-.65,16.4-8.43,23.7a25.32,25.32,0,0,1-19.11,6.86q-23.16-.92-28.35-16.34l-40.52-1.6q1.38,25.91,19,39.16t48.48,14.48q17.61.69,31.2-4.09t21.7-14.12q16.17-18.21,17.3-46.42L1465,101.93Zm-2.65,67.29q-.63,15.93-9.9,24.26t-20.84,7.87q-11.59-.45-20.17-9.37t-8-24.84q.63-15.91,9.9-24.25t20.84-7.87q11.58.47,20.17,9.37T1421.1,167.59Z"/><path class="a" d="M885.23,187.24v-56h27V97h-27V64.12H844V187.24q0,24.38,12.43,34.39t35.12,10h21v-35H897.78C889.4,196.65,885.23,193.51,885.23,187.24Z"/></svg>