<svg width="442" height="91" viewBox="0 0 442 91" fill="none" xmlns="http://www.w3.org/2000/svg">
<rect x="0.5" y="0.5" width="440.25" height="89.5128" rx="7.04274" fill="white"/>
<rect x="0.5" y="0.5" width="440.25" height="89.5128" rx="7.04274" stroke="#D9D9D9"/>
<rect x="15.0859" y="15.0854" width="60.3419" height="60.3419" rx="7.54274" fill="#00B75F"/>
<path d="M56.4212 39.4982L34.5527 30.8833C32.2521 29.977 29.978 32.2511 30.8843 34.5517L39.4992 56.4202C40.4254 58.7715 43.7352 58.8205 44.7307 56.4977L48.1125 48.6067C48.2079 48.3842 48.3852 48.2069 48.6077 48.1115L56.4987 44.7297C58.8215 43.7342 58.7724 40.4244 56.4212 39.4982Z" stroke="white" stroke-width="1.88568"/>
<rect x="90.5127" y="15.0854" width="60.3419" height="60.3419" rx="7.54274" fill="white"/>
<path fill-rule="evenodd" clip-rule="evenodd" d="M114.084 32.8377L134.085 52.8384L127.936 58.9867L123.047 54.0976L126.751 50.3934L125.418 49.06L121.714 52.7642L119.269 50.3193L121.713 47.8751L120.38 46.5417L117.936 48.986L115.491 46.5411L119.194 42.8377L117.861 41.5044L114.157 45.2077L111.713 42.7637L114.158 40.3195L112.824 38.9861L110.38 41.4303L107.936 38.986L114.084 32.8377ZM112.751 31.5043C113.487 30.7679 114.681 30.7679 115.417 31.5043L135.418 51.505C136.154 52.2414 136.154 53.4353 135.418 54.1717L129.27 60.3201C128.533 61.0565 127.339 61.0565 126.603 60.3201L106.602 40.3194C105.866 39.583 105.866 38.389 106.602 37.6526L112.751 31.5043ZM127.936 54.098L129.195 52.8387L130.528 54.1721L129.269 55.4314L127.936 54.098Z" fill="#1A1A1A"/>
<rect x="165.939" y="15.0854" width="60.3419" height="60.3419" rx="7.54274" fill="white"/>
<path fill-rule="evenodd" clip-rule="evenodd" d="M203.219 35.5204L189.849 48.8903L190.177 51.846L193.133 52.1745L206.503 38.8046C206.427 38.7281 206.356 38.6438 206.292 38.5518L205.326 37.1676C205.199 36.9858 205.041 36.8278 204.859 36.7008L203.475 35.7345C203.382 35.6694 203.296 35.5977 203.219 35.5204ZM208.253 30.49L208.251 30.4883C207.515 29.7519 206.321 29.7519 205.584 30.4883L188.516 47.5569C188.111 47.962 187.912 48.5292 187.975 49.0986L188.303 52.0543C188.401 52.9308 189.093 53.6228 189.969 53.7202L192.925 54.0486C193.494 54.1119 194.061 53.9129 194.467 53.5078L209.104 38.8706C209.127 38.8497 209.149 38.8281 209.172 38.8058L211.537 36.4408C212.271 35.707 212.273 34.5188 211.544 33.7818C211.541 33.7787 211.538 33.7756 211.535 33.7725M206.919 31.8233L204.554 34.1883L205.939 35.1547C206.302 35.4085 206.618 35.7246 206.872 36.0882L207.837 37.4705L210.202 35.1058L206.919 31.8233ZM184.736 34.6267C184.215 34.6267 183.793 35.0488 183.793 35.5696V56.5194C183.793 57.0402 184.215 57.4623 184.736 57.4623H205.686C206.206 57.4623 206.628 57.0401 206.628 56.5194V44.3964H208.514V56.5194C208.514 58.0816 207.248 59.348 205.686 59.348H184.736C183.174 59.348 181.907 58.0816 181.907 56.5194V35.5696C181.907 34.0074 183.174 32.741 184.736 32.741H196.859V34.6267H184.736Z" fill="#1A1A1A"/>
<rect x="241.368" y="15.0854" width="60.3419" height="60.3419" rx="7.54274" fill="white"/>
<path d="M271.54 59.399H260.225C258.663 59.399 257.397 58.1326 257.397 56.5705V45.2564C257.397 37.4456 263.729 31.1137 271.54 31.1137C279.35 31.1137 285.682 37.4456 285.682 45.2564C285.682 53.0671 279.35 59.399 271.54 59.399Z" stroke="#1A1A1A" stroke-width="1.88568"/>
<line x1="324.838" y1="2.18557e-08" x2="324.838" y2="90.5128" stroke="#E6E6E6"/>
<rect x="343.194" y="22.6282" width="75.4274" height="45.2564" rx="7.54274" fill="#00B75F"/>
<g filter="url(#filter0_d_4704_4346)">
<rect x="375.251" y="24.5139" width="41.485" height="41.485" rx="7.54274" fill="white" shape-rendering="crispEdges"/>
<path fill-rule="evenodd" clip-rule="evenodd" d="M399.637 39.0281C399.842 38.5495 399.62 37.9952 399.142 37.7901C398.663 37.585 398.109 37.8067 397.904 38.2853L392.314 51.327C392.109 51.8057 392.331 52.3599 392.81 52.5651C393.288 52.7702 393.842 52.5485 394.048 52.0699L399.637 39.0281ZM389.191 37.99C389.559 38.3582 389.559 38.9552 389.191 39.3234L384.004 44.5109C383.635 44.8791 383.635 45.4761 384.004 45.8443L389.191 51.0318C389.559 51.4 389.559 51.9969 389.191 52.3651C388.823 52.7333 388.226 52.7333 387.858 52.3651L382.67 47.1777C381.566 46.073 381.566 44.2821 382.67 43.1775L387.858 37.99C388.226 37.6218 388.823 37.6218 389.191 37.99ZM402.761 37.99C403.129 37.6218 403.726 37.6218 404.094 37.99L409.282 43.1775C410.386 44.2821 410.386 46.073 409.282 47.1777L404.094 52.3651C403.726 52.7333 403.129 52.7333 402.761 52.3651C402.393 51.9969 402.393 51.4 402.761 51.0318L407.948 45.8443C408.316 45.4761 408.316 44.8791 407.948 44.5109L402.761 39.3234C402.393 38.9552 402.393 38.3582 402.761 37.99Z" fill="#1A1A1A"/>
</g>
<defs>
<filter id="filter0_d_4704_4346" x="371.48" y="20.7425" width="49.0281" height="49.0278" filterUnits="userSpaceOnUse" color-interpolation-filters="sRGB">
<feFlood flood-opacity="0" result="BackgroundImageFix"/>
<feColorMatrix in="SourceAlpha" type="matrix" values="0 0 0 0 0 0 0 0 0 0 0 0 0 0 0 0 0 0 127 0" result="hardAlpha"/>
<feOffset/>
<feGaussianBlur stdDeviation="1.88568"/>
<feComposite in2="hardAlpha" operator="out"/>
<feColorMatrix type="matrix" values="0 0 0 0 0 0 0 0 0 0 0 0 0 0 0 0 0 0 0.22 0"/>
<feBlend mode="normal" in2="BackgroundImageFix" result="effect1_dropShadow_4704_4346"/>
<feBlend mode="normal" in="SourceGraphic" in2="effect1_dropShadow_4704_4346" result="shape"/>
</filter>
</defs>
</svg>
