<svg width="90" height="55" viewBox="0 0 90 55" fill="none" xmlns="http://www.w3.org/2000/svg">
<path d="M6.2285 45.1009C7.7036 46.8993 8.20999 48.1132 8.98557 48.3334C11.8697 49.165 14.8019 50.1908 17.8092 50.2709C25.8602 50.7513 33.3599 48.5867 40.5473 45.1602C52.8095 39.3449 62.8231 30.6865 71.8939 20.7161C72.8667 19.6513 73.8634 18.6836 74.9333 17.5947C75.0303 17.5707 75.2485 17.6198 75.5878 17.7419C75.5337 20.0216 75.5036 22.3984 75.5467 24.654C75.6407 25.867 75.977 27.226 76.6535 28.2948C77.0158 28.9263 78.3237 29.6328 79.0032 29.4647C79.8769 29.2485 80.7766 28.3048 81.409 27.5303C81.7743 26.9248 81.6552 26.0271 81.6572 25.2025C81.6723 19.0179 81.8815 12.7852 81.7754 6.52749C81.6914 1.19148 79.6329 -0.0504361 74.7542 1.46567C69.6814 3.02981 64.5606 4.39977 59.5608 5.84282C58.0316 6.32417 56.4534 7.0237 54.7542 7.65015C57.6073 11.2709 57.6073 11.2709 73.6934 8.83618C68.4114 16.633 62.0426 22.5354 55.4075 28.1946C48.7725 33.8538 41.437 38.3471 33.3279 41.7956C24.9275 45.3162 16.268 45.7075 6.2285 45.1009Z" fill="#30E197"/>
</svg>
