<svg width="367" height="171" viewBox="0 0 367 171" fill="none" xmlns="http://www.w3.org/2000/svg">
<rect width="367" height="171" rx="20" fill="#0D0D0D"/>
<path d="M28.3707 33.9091H31.4709L34.456 39.5469H34.5838L37.5689 33.9091H40.669L35.8942 42.3722V47H33.1456V42.3722L28.3707 33.9091ZM44.5091 47.1918C43.5162 47.1918 42.6575 46.9808 41.9331 46.5589C41.2129 46.1328 40.6568 45.5405 40.2647 44.782C39.8727 44.0192 39.6767 43.1349 39.6767 42.1293C39.6767 41.1151 39.8727 40.2287 40.2647 39.4702C40.6568 38.7074 41.2129 38.1151 41.9331 37.6932C42.6575 37.267 43.5162 37.054 44.5091 37.054C45.502 37.054 46.3585 37.267 47.0787 37.6932C47.8031 38.1151 48.3613 38.7074 48.7534 39.4702C49.1454 40.2287 49.3414 41.1151 49.3414 42.1293C49.3414 43.1349 49.1454 44.0192 48.7534 44.782C48.3613 45.5405 47.8031 46.1328 47.0787 46.5589C46.3585 46.9808 45.502 47.1918 44.5091 47.1918ZM44.5218 45.0824C44.9735 45.0824 45.3507 44.9545 45.6532 44.6989C45.9558 44.4389 46.1838 44.0852 46.3372 43.6378C46.4949 43.1903 46.5737 42.6811 46.5737 42.1101C46.5737 41.5391 46.4949 41.0298 46.3372 40.5824C46.1838 40.1349 45.9558 39.7812 45.6532 39.5213C45.3507 39.2614 44.9735 39.1314 44.5218 39.1314C44.0659 39.1314 43.6824 39.2614 43.3713 39.5213C43.0645 39.7812 42.8322 40.1349 42.6745 40.5824C42.5211 41.0298 42.4444 41.5391 42.4444 42.1101C42.4444 42.6811 42.5211 43.1903 42.6745 43.6378C42.8322 44.0852 43.0645 44.4389 43.3713 44.6989C43.6824 44.9545 44.0659 45.0824 44.5218 45.0824ZM57.4082 42.8196V37.1818H60.1312V47H57.5169V45.2166H57.4146C57.193 45.7919 56.8244 46.2543 56.3088 46.6037C55.7974 46.9531 55.1731 47.1278 54.4359 47.1278C53.7797 47.1278 53.2022 46.9787 52.7037 46.6804C52.2051 46.3821 51.8152 45.9581 51.5339 45.4084C51.2569 44.8587 51.1163 44.2003 51.112 43.4332V37.1818H53.835V42.9474C53.8393 43.527 53.9949 43.9851 54.3017 44.3217C54.6085 44.6584 55.0197 44.8267 55.5353 44.8267C55.8635 44.8267 56.1703 44.7521 56.4558 44.603C56.7413 44.4496 56.9714 44.2237 57.1461 43.9254C57.3251 43.6271 57.4125 43.2585 57.4082 42.8196ZM62.3093 47V37.1818H64.9492V38.8949H65.0515C65.2305 38.2855 65.5309 37.8253 65.9528 37.5142C66.3746 37.1989 66.8604 37.0412 67.4102 37.0412C67.5465 37.0412 67.6935 37.0497 67.8512 37.0668C68.0089 37.0838 68.1474 37.1072 68.2667 37.1371V39.5533C68.1388 39.5149 67.962 39.4808 67.7362 39.451C67.5103 39.4212 67.3036 39.4062 67.1161 39.4062C66.7156 39.4062 66.3576 39.4936 66.0423 39.6683C65.7312 39.8388 65.484 40.0774 65.3008 40.3842C65.1218 40.6911 65.0323 41.0447 65.0323 41.4453V47H62.3093ZM78.5323 47H73.8917V33.9091H78.5707C79.8874 33.9091 81.021 34.1712 81.9712 34.6953C82.9215 35.2152 83.6523 35.9631 84.1637 36.9389C84.6793 37.9148 84.9371 39.0824 84.9371 40.4418C84.9371 41.8054 84.6793 42.9773 84.1637 43.9574C83.6523 44.9375 82.9173 45.6896 81.9585 46.2138C81.0039 46.7379 79.8619 47 78.5323 47ZM76.6594 44.6286H78.4173C79.2354 44.6286 79.9237 44.4837 80.4819 44.1939C81.0444 43.8999 81.4663 43.446 81.7475 42.8324C82.033 42.2145 82.1758 41.4176 82.1758 40.4418C82.1758 39.4744 82.033 38.6839 81.7475 38.0703C81.4663 37.4567 81.0465 37.005 80.4883 36.7152C79.93 36.4254 79.2418 36.2805 78.4237 36.2805H76.6594V44.6286ZM91.3723 47.1918C90.3794 47.1918 89.5208 46.9808 88.7963 46.5589C88.0762 46.1328 87.5201 45.5405 87.128 44.782C86.736 44.0192 86.54 43.1349 86.54 42.1293C86.54 41.1151 86.736 40.2287 87.128 39.4702C87.5201 38.7074 88.0762 38.1151 88.7963 37.6932C89.5208 37.267 90.3794 37.054 91.3723 37.054C92.3652 37.054 93.2218 37.267 93.9419 37.6932C94.6664 38.1151 95.2246 38.7074 95.6167 39.4702C96.0087 40.2287 96.2047 41.1151 96.2047 42.1293C96.2047 43.1349 96.0087 44.0192 95.6167 44.782C95.2246 45.5405 94.6664 46.1328 93.9419 46.5589C93.2218 46.9808 92.3652 47.1918 91.3723 47.1918ZM91.3851 45.0824C91.8368 45.0824 92.214 44.9545 92.5165 44.6989C92.8191 44.4389 93.0471 44.0852 93.2005 43.6378C93.3581 43.1903 93.437 42.6811 93.437 42.1101C93.437 41.5391 93.3581 41.0298 93.2005 40.5824C93.0471 40.1349 92.8191 39.7812 92.5165 39.5213C92.214 39.2614 91.8368 39.1314 91.3851 39.1314C90.9292 39.1314 90.5456 39.2614 90.2346 39.5213C89.9277 39.7812 89.6955 40.1349 89.5378 40.5824C89.3844 41.0298 89.3077 41.5391 89.3077 42.1101C89.3077 42.6811 89.3844 43.1903 89.5378 43.6378C89.6955 44.0852 89.9277 44.4389 90.2346 44.6989C90.5456 44.9545 90.9292 45.0824 91.3851 45.0824ZM99.666 47L96.9941 37.1818H99.7491L101.27 43.7784H101.36L102.945 37.1818H105.649L107.26 43.7401H107.343L108.839 37.1818H111.587L108.922 47H106.039L104.351 40.8253H104.23L102.542 47H99.666ZM115.763 41.3239V47H113.04V37.1818H115.635V38.9141H115.75C115.967 38.343 116.332 37.8913 116.843 37.5589C117.354 37.2223 117.974 37.054 118.703 37.054C119.385 37.054 119.979 37.2031 120.487 37.5014C120.994 37.7997 121.388 38.2259 121.669 38.7798C121.95 39.3295 122.091 39.9858 122.091 40.7486V47H119.368V41.2344C119.372 40.6335 119.219 40.1648 118.908 39.8281C118.597 39.4872 118.168 39.3168 117.623 39.3168C117.256 39.3168 116.933 39.3956 116.651 39.5533C116.374 39.7109 116.157 39.9411 115.999 40.2436C115.846 40.5419 115.767 40.902 115.763 41.3239ZM126.96 33.9091V47H124.237V33.9091H126.96ZM133.577 47.1918C132.585 47.1918 131.726 46.9808 131.001 46.5589C130.281 46.1328 129.725 45.5405 129.333 44.782C128.941 44.0192 128.745 43.1349 128.745 42.1293C128.745 41.1151 128.941 40.2287 129.333 39.4702C129.725 38.7074 130.281 38.1151 131.001 37.6932C131.726 37.267 132.585 37.054 133.577 37.054C134.57 37.054 135.427 37.267 136.147 37.6932C136.871 38.1151 137.43 38.7074 137.822 39.4702C138.214 40.2287 138.41 41.1151 138.41 42.1293C138.41 43.1349 138.214 44.0192 137.822 44.782C137.43 45.5405 136.871 46.1328 136.147 46.5589C135.427 46.9808 134.57 47.1918 133.577 47.1918ZM133.59 45.0824C134.042 45.0824 134.419 44.9545 134.722 44.6989C135.024 44.4389 135.252 44.0852 135.406 43.6378C135.563 43.1903 135.642 42.6811 135.642 42.1101C135.642 41.5391 135.563 41.0298 135.406 40.5824C135.252 40.1349 135.024 39.7812 134.722 39.5213C134.419 39.2614 134.042 39.1314 133.59 39.1314C133.134 39.1314 132.751 39.2614 132.44 39.5213C132.133 39.7812 131.901 40.1349 131.743 40.5824C131.589 41.0298 131.513 41.5391 131.513 42.1101C131.513 42.6811 131.589 43.1903 131.743 43.6378C131.901 44.0852 132.133 44.4389 132.44 44.6989C132.751 44.9545 133.134 45.0824 133.59 45.0824ZM142.98 47.1854C142.354 47.1854 141.795 47.0767 141.305 46.8594C140.815 46.6378 140.428 46.3118 140.142 45.8814C139.861 45.4467 139.72 44.9055 139.72 44.2578C139.72 43.7124 139.82 43.2543 140.021 42.8835C140.221 42.5128 140.494 42.2145 140.839 41.9886C141.184 41.7628 141.576 41.5923 142.015 41.4773C142.458 41.3622 142.923 41.2812 143.408 41.2344C143.979 41.1747 144.44 41.1193 144.789 41.0682C145.138 41.0128 145.392 40.9318 145.55 40.8253C145.707 40.7187 145.786 40.5611 145.786 40.3523V40.3139C145.786 39.9091 145.658 39.5959 145.403 39.3743C145.151 39.1527 144.793 39.0419 144.329 39.0419C143.839 39.0419 143.449 39.1506 143.159 39.3679C142.869 39.581 142.678 39.8494 142.584 40.1733L140.065 39.9688C140.193 39.3722 140.445 38.8565 140.82 38.4219C141.195 37.983 141.678 37.6463 142.271 37.4119C142.867 37.1733 143.558 37.054 144.342 37.054C144.887 37.054 145.409 37.1179 145.908 37.2457C146.411 37.3736 146.856 37.5717 147.244 37.8402C147.636 38.1087 147.945 38.4538 148.17 38.8757C148.396 39.2933 148.509 39.794 148.509 40.3778V47H145.927V45.6385H145.85C145.692 45.9453 145.482 46.2159 145.217 46.4503C144.953 46.6804 144.636 46.8615 144.265 46.9936C143.894 47.1214 143.466 47.1854 142.98 47.1854ZM143.76 45.3061C144.161 45.3061 144.514 45.2273 144.821 45.0696C145.128 44.9077 145.369 44.6903 145.543 44.4176C145.718 44.1449 145.805 43.8359 145.805 43.4908V42.4489C145.72 42.5043 145.603 42.5554 145.454 42.6023C145.309 42.6449 145.145 42.6854 144.962 42.7237C144.778 42.7578 144.595 42.7898 144.412 42.8196C144.229 42.8452 144.062 42.8686 143.913 42.8899C143.594 42.9368 143.315 43.0114 143.076 43.1136C142.837 43.2159 142.652 43.3544 142.52 43.5291C142.388 43.6996 142.322 43.9126 142.322 44.1683C142.322 44.5391 142.456 44.8224 142.724 45.0185C142.997 45.2102 143.342 45.3061 143.76 45.3061ZM154.24 47.1598C153.494 47.1598 152.819 46.968 152.213 46.5845C151.613 46.1967 151.135 45.6278 150.782 44.8778C150.432 44.1236 150.257 43.1989 150.257 42.1037C150.257 40.9787 150.439 40.0433 150.801 39.2976C151.163 38.5476 151.645 37.9872 152.245 37.6165C152.85 37.2415 153.513 37.054 154.233 37.054C154.783 37.054 155.241 37.1477 155.608 37.3352C155.978 37.5185 156.277 37.7486 156.502 38.0256C156.733 38.2983 156.907 38.5668 157.027 38.831H157.11V33.9091H159.826V47H157.142V45.4276H157.027C156.899 45.7003 156.718 45.9709 156.483 46.2393C156.253 46.5036 155.953 46.723 155.582 46.8977C155.216 47.0724 154.768 47.1598 154.24 47.1598ZM155.103 44.9929C155.542 44.9929 155.912 44.8736 156.215 44.6349C156.522 44.392 156.756 44.0533 156.918 43.6186C157.084 43.1839 157.167 42.6747 157.167 42.0909C157.167 41.5071 157.086 41 156.924 40.5696C156.762 40.1392 156.528 39.8068 156.221 39.5724C155.914 39.3381 155.542 39.2209 155.103 39.2209C154.655 39.2209 154.278 39.3423 153.971 39.5852C153.664 39.8281 153.432 40.1648 153.275 40.5952C153.117 41.0256 153.038 41.5241 153.038 42.0909C153.038 42.6619 153.117 43.1669 153.275 43.6058C153.436 44.0405 153.669 44.3814 153.971 44.6286C154.278 44.8714 154.655 44.9929 155.103 44.9929ZM170.234 39.9815L167.741 40.1349C167.699 39.9219 167.607 39.7301 167.466 39.5597C167.326 39.3849 167.14 39.2464 166.91 39.1442C166.684 39.0376 166.414 38.9844 166.099 38.9844C165.677 38.9844 165.321 39.0739 165.031 39.2528C164.741 39.4276 164.596 39.6619 164.596 39.956C164.596 40.1903 164.69 40.3885 164.878 40.5504C165.065 40.7124 165.387 40.8423 165.843 40.9403L167.62 41.2983C168.574 41.4943 169.286 41.8097 169.755 42.2443C170.224 42.679 170.458 43.25 170.458 43.9574C170.458 44.6009 170.268 45.1655 169.889 45.6513C169.514 46.1371 168.998 46.5163 168.342 46.7891C167.69 47.0575 166.938 47.1918 166.086 47.1918C164.786 47.1918 163.751 46.9212 162.979 46.38C162.212 45.8345 161.763 45.093 161.631 44.1555L164.309 44.0149C164.39 44.4112 164.586 44.7138 164.897 44.9226C165.208 45.1271 165.606 45.2294 166.092 45.2294C166.569 45.2294 166.953 45.1378 167.243 44.9545C167.537 44.767 167.686 44.5263 167.69 44.2322C167.686 43.9851 167.581 43.7827 167.377 43.625C167.172 43.4631 166.857 43.3395 166.431 43.2543L164.731 42.9155C163.772 42.7237 163.058 42.3913 162.589 41.9183C162.125 41.4453 161.893 40.8423 161.893 40.1094C161.893 39.4787 162.063 38.9354 162.404 38.4794C162.749 38.0234 163.233 37.6719 163.855 37.4247C164.481 37.1776 165.214 37.054 166.054 37.054C167.294 37.054 168.27 37.3161 168.981 37.8402C169.697 38.3643 170.115 39.0781 170.234 39.9815Z" fill="white"/>
<path d="M95.804 105L93.4773 97.3636H94.7102L96.3608 103.21H96.4403L98.071 97.3636H99.3239L100.935 103.19H101.014L102.665 97.3636H103.898L101.571 105H100.418L98.7472 99.1335H98.6278L96.9574 105H95.804ZM107.696 105.179C107.212 105.179 106.773 105.088 106.379 104.906C105.984 104.72 105.671 104.453 105.439 104.105C105.207 103.754 105.091 103.33 105.091 102.832C105.091 102.395 105.177 102.04 105.349 101.768C105.522 101.493 105.752 101.278 106.04 101.122C106.329 100.966 106.647 100.85 106.995 100.774C107.346 100.695 107.699 100.632 108.054 100.585C108.518 100.526 108.894 100.481 109.183 100.451C109.474 100.418 109.686 100.363 109.819 100.287C109.955 100.211 110.023 100.078 110.023 99.8892V99.8494C110.023 99.3589 109.888 98.9777 109.62 98.706C109.355 98.4342 108.952 98.2983 108.412 98.2983C107.852 98.2983 107.413 98.4209 107.094 98.6662C106.776 98.9115 106.553 99.1733 106.423 99.4517L105.31 99.054C105.509 98.59 105.774 98.2287 106.105 97.9702C106.44 97.7083 106.804 97.526 107.199 97.4233C107.597 97.3172 107.988 97.2642 108.372 97.2642C108.617 97.2642 108.899 97.294 109.217 97.3537C109.539 97.41 109.849 97.5277 110.147 97.7067C110.449 97.8857 110.699 98.1558 110.898 98.517C111.097 98.8783 111.196 99.3622 111.196 99.9688V105H110.023V103.966H109.963C109.884 104.132 109.751 104.309 109.565 104.498C109.38 104.687 109.133 104.848 108.825 104.98C108.516 105.113 108.14 105.179 107.696 105.179ZM107.875 104.125C108.339 104.125 108.73 104.034 109.048 103.852C109.37 103.669 109.612 103.434 109.774 103.146C109.94 102.857 110.023 102.554 110.023 102.236V101.162C109.973 101.222 109.864 101.276 109.695 101.326C109.529 101.372 109.337 101.414 109.118 101.45C108.902 101.483 108.692 101.513 108.487 101.54C108.284 101.563 108.12 101.583 107.994 101.599C107.689 101.639 107.404 101.704 107.139 101.793C106.877 101.879 106.665 102.01 106.503 102.186C106.344 102.358 106.264 102.594 106.264 102.892C106.264 103.3 106.415 103.608 106.717 103.817C107.022 104.022 107.408 104.125 107.875 104.125ZM116.42 108.023C115.853 108.023 115.366 107.95 114.958 107.804C114.551 107.661 114.211 107.473 113.939 107.237C113.671 107.005 113.457 106.757 113.298 106.491L114.232 105.835C114.338 105.974 114.473 106.134 114.635 106.312C114.798 106.495 115.02 106.652 115.301 106.785C115.586 106.921 115.959 106.989 116.42 106.989C117.036 106.989 117.545 106.839 117.946 106.541C118.347 106.243 118.548 105.776 118.548 105.139V103.588H118.448C118.362 103.727 118.24 103.9 118.08 104.105C117.925 104.307 117.699 104.488 117.404 104.647C117.113 104.803 116.718 104.881 116.221 104.881C115.605 104.881 115.051 104.735 114.561 104.443C114.073 104.152 113.687 103.727 113.402 103.17C113.12 102.614 112.98 101.937 112.98 101.142C112.98 100.36 113.117 99.6787 113.392 99.0987C113.667 98.5154 114.05 98.0646 114.541 97.7464C115.031 97.425 115.598 97.2642 116.241 97.2642C116.738 97.2642 117.133 97.3471 117.424 97.5128C117.719 97.6752 117.945 97.8608 118.1 98.0696C118.259 98.2751 118.382 98.4441 118.468 98.5767H118.588V97.3636H119.721V105.219C119.721 105.875 119.572 106.409 119.274 106.82C118.979 107.234 118.581 107.537 118.08 107.729C117.583 107.925 117.03 108.023 116.42 108.023ZM116.38 103.827C116.851 103.827 117.249 103.719 117.573 103.504C117.898 103.288 118.145 102.978 118.314 102.574C118.483 102.17 118.568 101.686 118.568 101.122C118.568 100.572 118.485 100.086 118.319 99.6655C118.153 99.2446 117.908 98.9148 117.583 98.6761C117.258 98.4375 116.857 98.3182 116.38 98.3182C115.883 98.3182 115.469 98.4441 115.137 98.696C114.809 98.9479 114.562 99.286 114.396 99.7102C114.234 100.134 114.153 100.605 114.153 101.122C114.153 101.652 114.236 102.121 114.401 102.529C114.57 102.933 114.819 103.252 115.147 103.484C115.479 103.712 115.89 103.827 116.38 103.827ZM125.19 97.3636V98.358H121.232V97.3636H125.19ZM122.386 95.5341H123.559V102.812C123.559 103.144 123.607 103.393 123.703 103.558C123.803 103.721 123.929 103.83 124.081 103.886C124.237 103.939 124.401 103.966 124.573 103.966C124.703 103.966 124.809 103.959 124.892 103.946C124.974 103.929 125.041 103.916 125.09 103.906L125.329 104.96C125.249 104.99 125.138 105.02 124.996 105.05C124.853 105.083 124.673 105.099 124.454 105.099C124.123 105.099 123.798 105.028 123.48 104.886C123.165 104.743 122.903 104.526 122.694 104.234C122.489 103.943 122.386 103.575 122.386 103.131V95.5341ZM126.955 105V97.3636H128.088V98.517H128.168C128.307 98.1392 128.559 97.8326 128.923 97.5973C129.288 97.362 129.699 97.2443 130.156 97.2443C130.243 97.2443 130.35 97.246 130.48 97.2493C130.609 97.2526 130.707 97.2576 130.773 97.2642V98.4574C130.733 98.4474 130.642 98.4325 130.499 98.4126C130.36 98.3894 130.213 98.3778 130.057 98.3778C129.686 98.3778 129.354 98.4557 129.063 98.6115C128.774 98.764 128.546 98.9761 128.377 99.2479C128.211 99.5163 128.128 99.8229 128.128 100.168V105H126.955ZM136.976 101.878V97.3636H138.15V105H136.976V103.707H136.897C136.718 104.095 136.439 104.425 136.061 104.697C135.684 104.965 135.206 105.099 134.63 105.099C134.152 105.099 133.728 104.995 133.357 104.786C132.986 104.574 132.694 104.256 132.482 103.832C132.27 103.404 132.164 102.866 132.164 102.216V97.3636H133.337V102.136C133.337 102.693 133.493 103.137 133.804 103.469C134.119 103.8 134.52 103.966 135.007 103.966C135.299 103.966 135.596 103.891 135.897 103.742C136.202 103.593 136.458 103.364 136.663 103.056C136.872 102.748 136.976 102.355 136.976 101.878ZM141.472 100.406V105H140.298V97.3636H141.432V98.5568H141.531C141.71 98.169 141.982 97.8575 142.347 97.6222C142.711 97.3835 143.182 97.2642 143.759 97.2642C144.276 97.2642 144.728 97.3703 145.116 97.5824C145.504 97.7912 145.805 98.1094 146.021 98.5369C146.236 98.9612 146.344 99.4981 146.344 100.148V105H145.171V100.227C145.171 99.6274 145.015 99.16 144.703 98.8253C144.392 98.4872 143.964 98.3182 143.421 98.3182C143.046 98.3182 142.711 98.3994 142.416 98.5618C142.125 98.7242 141.894 98.9612 141.725 99.2727C141.556 99.5843 141.472 99.9621 141.472 100.406ZM151.57 108.023C151.004 108.023 150.516 107.95 150.109 107.804C149.701 107.661 149.361 107.473 149.089 107.237C148.821 107.005 148.607 106.757 148.448 106.491L149.383 105.835C149.489 105.974 149.623 106.134 149.786 106.312C149.948 106.495 150.17 106.652 150.452 106.785C150.737 106.921 151.11 106.989 151.57 106.989C152.187 106.989 152.696 106.839 153.097 106.541C153.498 106.243 153.698 105.776 153.698 105.139V103.588H153.599C153.513 103.727 153.39 103.9 153.231 104.105C153.075 104.307 152.85 104.488 152.555 104.647C152.263 104.803 151.869 104.881 151.371 104.881C150.755 104.881 150.201 104.735 149.711 104.443C149.224 104.152 148.838 103.727 148.553 103.17C148.271 102.614 148.13 101.937 148.13 101.142C148.13 100.36 148.268 99.6787 148.543 99.0987C148.818 98.5154 149.201 98.0646 149.691 97.7464C150.182 97.425 150.748 97.2642 151.391 97.2642C151.888 97.2642 152.283 97.3471 152.575 97.5128C152.87 97.6752 153.095 97.8608 153.251 98.0696C153.41 98.2751 153.532 98.4441 153.619 98.5767H153.738V97.3636H154.871V105.219C154.871 105.875 154.722 106.409 154.424 106.82C154.129 107.234 153.731 107.537 153.231 107.729C152.734 107.925 152.18 108.023 151.57 108.023ZM151.531 103.827C152.001 103.827 152.399 103.719 152.724 103.504C153.049 103.288 153.295 102.978 153.464 102.574C153.634 102.17 153.718 101.686 153.718 101.122C153.718 100.572 153.635 100.086 153.469 99.6655C153.304 99.2446 153.058 98.9148 152.734 98.6761C152.409 98.4375 152.008 98.3182 151.531 98.3182C151.033 98.3182 150.619 98.4441 150.288 98.696C149.96 98.9479 149.713 99.286 149.547 99.7102C149.384 100.134 149.303 100.605 149.303 101.122C149.303 101.652 149.386 102.121 149.552 102.529C149.721 102.933 149.969 103.252 150.298 103.484C150.629 103.712 151.04 103.827 151.531 103.827ZM162.768 105V106.094H156.404V105H162.768ZM171.619 98H170.387C170.314 97.6454 170.186 97.3338 170.004 97.0653C169.825 96.7969 169.606 96.5715 169.347 96.3892C169.092 96.2036 168.809 96.0644 168.497 95.9716C168.186 95.8788 167.861 95.8324 167.523 95.8324C166.906 95.8324 166.348 95.9882 165.847 96.2997C165.35 96.6113 164.954 97.0703 164.659 97.6768C164.368 98.2834 164.222 99.0275 164.222 99.9091C164.222 100.791 164.368 101.535 164.659 102.141C164.954 102.748 165.35 103.207 165.847 103.518C166.348 103.83 166.906 103.986 167.523 103.986C167.861 103.986 168.186 103.939 168.497 103.847C168.809 103.754 169.092 103.616 169.347 103.434C169.606 103.248 169.825 103.021 170.004 102.753C170.186 102.481 170.314 102.17 170.387 101.818H171.619C171.527 102.339 171.358 102.804 171.112 103.215C170.867 103.626 170.562 103.976 170.198 104.264C169.833 104.549 169.424 104.766 168.97 104.915C168.519 105.065 168.037 105.139 167.523 105.139C166.655 105.139 165.882 104.927 165.206 104.503C164.53 104.079 163.998 103.475 163.61 102.693C163.222 101.911 163.029 100.983 163.029 99.9091C163.029 98.8352 163.222 97.9072 163.61 97.125C163.998 96.3428 164.53 95.7396 165.206 95.3153C165.882 94.8911 166.655 94.679 167.523 94.679C168.037 94.679 168.519 94.7536 168.97 94.9027C169.424 95.0518 169.833 95.2706 170.198 95.5589C170.562 95.844 170.867 96.192 171.112 96.603C171.358 97.0107 171.527 97.4763 171.619 98ZM174.029 94.8182L177.052 103.389H177.172L180.194 94.8182H181.487L177.748 105H176.475L172.737 94.8182H174.029ZM182.415 105.08C182.17 105.08 181.96 104.992 181.784 104.816C181.608 104.64 181.52 104.43 181.52 104.185C181.52 103.939 181.608 103.729 181.784 103.553C181.96 103.378 182.17 103.29 182.415 103.29C182.661 103.29 182.871 103.378 183.047 103.553C183.222 103.729 183.31 103.939 183.31 104.185C183.31 104.347 183.269 104.496 183.186 104.632C183.106 104.768 182.999 104.877 182.863 104.96C182.73 105.04 182.581 105.08 182.415 105.08ZM185.416 107.864V97.3636H186.549V98.5767H186.688C186.775 98.4441 186.894 98.2751 187.046 98.0696C187.202 97.8608 187.424 97.6752 187.713 97.5128C188.004 97.3471 188.399 97.2642 188.896 97.2642C189.539 97.2642 190.106 97.425 190.596 97.7464C191.087 98.0679 191.469 98.5237 191.744 99.1136C192.02 99.7036 192.157 100.4 192.157 101.202C192.157 102.01 192.02 102.711 191.744 103.305C191.469 103.895 191.088 104.352 190.601 104.677C190.114 104.998 189.552 105.159 188.916 105.159C188.425 105.159 188.032 105.078 187.737 104.915C187.442 104.75 187.215 104.562 187.056 104.354C186.897 104.142 186.775 103.966 186.688 103.827H186.589V107.864H185.416ZM186.569 101.182C186.569 101.759 186.654 102.267 186.823 102.708C186.992 103.146 187.239 103.489 187.563 103.737C187.888 103.982 188.286 104.105 188.757 104.105C189.247 104.105 189.656 103.976 189.985 103.717C190.316 103.455 190.565 103.104 190.73 102.663C190.899 102.219 190.984 101.725 190.984 101.182C190.984 100.645 190.901 100.161 190.735 99.7301C190.573 99.2959 190.326 98.9529 189.994 98.701C189.666 98.4458 189.254 98.3182 188.757 98.3182C188.279 98.3182 187.878 98.4392 187.553 98.6811C187.229 98.9197 186.983 99.2545 186.818 99.6854C186.652 100.113 186.569 100.612 186.569 101.182ZM196.83 105.159C196.194 105.159 195.632 104.998 195.145 104.677C194.658 104.352 194.277 103.895 194.002 103.305C193.727 102.711 193.589 102.01 193.589 101.202C193.589 100.4 193.727 99.7036 194.002 99.1136C194.277 98.5237 194.66 98.0679 195.15 97.7464C195.641 97.425 196.207 97.2642 196.85 97.2642C197.347 97.2642 197.74 97.3471 198.029 97.5128C198.32 97.6752 198.542 97.8608 198.695 98.0696C198.851 98.2751 198.972 98.4441 199.058 98.5767H199.157V94.8182H200.33V105H199.197V103.827H199.058C198.972 103.966 198.849 104.142 198.69 104.354C198.531 104.562 198.304 104.75 198.009 104.915C197.714 105.078 197.321 105.159 196.83 105.159ZM196.99 104.105C197.46 104.105 197.858 103.982 198.183 103.737C198.508 103.489 198.754 103.146 198.923 102.708C199.093 102.267 199.177 101.759 199.177 101.182C199.177 100.612 199.094 100.113 198.928 99.6854C198.763 99.2545 198.517 98.9197 198.193 98.6811C197.868 98.4392 197.467 98.3182 196.99 98.3182C196.492 98.3182 196.078 98.4458 195.747 98.701C195.419 98.9529 195.172 99.2959 195.006 99.7301C194.843 100.161 194.762 100.645 194.762 101.182C194.762 101.725 194.845 102.219 195.011 102.663C195.18 103.104 195.428 103.455 195.757 103.717C196.088 103.976 196.499 104.105 196.99 104.105ZM206.043 97.3636V98.358H201.926V97.3636H206.043ZM203.159 105V96.3097C203.159 95.8722 203.262 95.5076 203.468 95.2159C203.673 94.9242 203.94 94.7055 204.268 94.5597C204.596 94.4138 204.942 94.3409 205.307 94.3409C205.595 94.3409 205.831 94.3641 206.013 94.4105C206.195 94.4569 206.331 94.5 206.421 94.5398L206.083 95.554C206.023 95.5341 205.94 95.5092 205.834 95.4794C205.731 95.4496 205.595 95.4347 205.426 95.4347C205.039 95.4347 204.758 95.5324 204.586 95.728C204.417 95.9235 204.333 96.2102 204.333 96.5881V105H203.159Z" fill="white"/>
<rect opacity="0.15" x="93" y="129" width="246" height="5" rx="2.5" fill="#01F891"/>
<rect x="93" y="128.659" width="161.293" height="5.34091" rx="2.67045" fill="#01F891"/>
<path d="M299.672 107.88V107.1C299.864 106.932 300.164 106.672 300.572 106.32C300.988 105.968 301.296 105.704 301.496 105.528C301.696 105.344 301.96 105.1 302.288 104.796C302.616 104.484 302.864 104.224 303.032 104.016C303.208 103.808 303.388 103.568 303.572 103.296C303.916 102.784 304.088 102.28 304.088 101.784C304.088 101.28 303.956 100.876 303.692 100.572C303.436 100.268 303.028 100.116 302.468 100.116C301.916 100.116 301.492 100.288 301.196 100.632C300.9 100.968 300.74 101.416 300.716 101.976H299.672C299.704 101.08 299.972 100.392 300.476 99.912C300.988 99.424 301.648 99.18 302.456 99.18C303.272 99.18 303.924 99.412 304.412 99.876C304.908 100.332 305.156 100.956 305.156 101.748C305.156 102.7 304.692 103.68 303.764 104.688C303.428 105.048 303.168 105.312 302.984 105.48C302.472 105.976 301.924 106.468 301.34 106.956H305.42V107.88H299.672ZM308.097 107.796C307.961 107.932 307.797 108 307.605 108C307.413 108 307.249 107.932 307.113 107.796C306.977 107.66 306.909 107.496 306.909 107.304C306.909 107.104 306.977 106.936 307.113 106.8C307.249 106.664 307.413 106.596 307.605 106.596C307.797 106.596 307.961 106.664 308.097 106.8C308.233 106.936 308.301 107.104 308.301 107.304C308.301 107.496 308.233 107.66 308.097 107.796ZM315.16 105.12C315.16 104.504 315 104.02 314.68 103.668C314.368 103.308 313.92 103.128 313.336 103.128C312.76 103.128 312.272 103.292 311.872 103.62C311.48 103.94 311.284 104.412 311.284 105.036C311.284 105.66 311.456 106.156 311.8 106.524C312.144 106.892 312.624 107.076 313.24 107.076C313.856 107.076 314.328 106.904 314.656 106.56C314.992 106.208 315.16 105.728 315.16 105.12ZM313.276 99.96C312.556 99.96 312.024 100.224 311.68 100.752C311.336 101.28 311.152 102.176 311.128 103.44C311.344 103.048 311.664 102.744 312.088 102.528C312.512 102.304 312.984 102.192 313.504 102.192C314.304 102.192 314.952 102.452 315.448 102.972C315.944 103.484 316.192 104.18 316.192 105.06C316.192 105.932 315.948 106.64 315.46 107.184C314.972 107.728 314.272 108 313.36 108C311.904 108 310.972 107.384 310.564 106.152C310.332 105.456 310.216 104.476 310.216 103.212C310.216 101.948 310.464 100.936 310.96 100.176C311.456 99.416 312.228 99.036 313.276 99.036C314.044 99.036 314.652 99.244 315.1 99.66C315.556 100.068 315.82 100.576 315.892 101.184H314.908C314.804 100.768 314.624 100.46 314.368 100.26C314.112 100.06 313.748 99.96 313.276 99.96ZM330.561 99.684V108H329.457V101.94L326.673 108H325.965L323.169 101.94V108H322.077V99.684H323.193L326.325 106.5L329.445 99.684H330.561ZM332.666 99.684H335.642C336.49 99.684 337.146 99.892 337.61 100.308C338.074 100.716 338.306 101.244 338.306 101.892C338.306 102.82 337.774 103.432 336.71 103.728C337.246 103.816 337.678 104.056 338.006 104.448C338.334 104.84 338.498 105.292 338.498 105.804C338.498 106.436 338.25 106.96 337.754 107.376C337.266 107.792 336.61 108 335.786 108H332.666V99.684ZM333.758 100.56V103.296H335.594C336.098 103.296 336.49 103.176 336.77 102.936C337.058 102.688 337.202 102.356 337.202 101.94C337.202 101.516 337.058 101.18 336.77 100.932C336.49 100.684 336.098 100.56 335.594 100.56H333.758ZM333.758 107.136H335.726C336.254 107.136 336.666 107.004 336.962 106.74C337.266 106.476 337.418 106.116 337.418 105.66C337.418 105.196 337.254 104.832 336.926 104.568C336.606 104.304 336.178 104.172 335.642 104.172H333.758V107.136Z" fill="white"/>
<path d="M34.6667 81C34.6667 81 34.6667 81 34.6667 81H52.31C53.194 81.0002 54.0417 81.3515 54.6667 81.9767L67.0233 94.3333C67.6485 94.9583 67.9998 95.806 68 96.69V127.667C68 129.435 67.2976 131.13 66.0474 132.381C64.7971 133.631 63.1014 134.333 61.3333 134.333H34.6667C32.8986 134.333 31.2029 133.631 29.9526 132.381C28.7024 131.13 28 129.435 28 127.667V87.6667C28 85.8986 28.7024 84.2029 29.9526 82.9526C31.2029 81.7024 32.8986 81 34.6667 81C34.6667 81 34.6667 81 34.6667 81V81ZM57.714 90.714C55.9744 88.9744 53 90.2065 53 92.6667V92.6667C53 93.5507 53.3512 94.3986 53.9763 95.0237C54.6014 95.6488 55.4493 96 56.3333 96V96C58.7935 96 60.0256 93.0256 58.286 91.286L57.714 90.714Z" fill="#01F891"/>
<path d="M38.22 115.07C38.22 115.33 38.13 115.55 37.95 115.73C37.77 115.91 37.5467 116 37.28 116C37.02 116 36.8 115.91 36.62 115.73C36.44 115.55 36.35 115.33 36.35 115.07C36.35 114.803 36.44 114.58 36.62 114.4C36.8 114.22 37.02 114.13 37.28 114.13C37.5467 114.13 37.77 114.22 37.95 114.4C38.13 114.58 38.22 114.803 38.22 115.07ZM45.1684 111.13C45.1684 111.603 44.9984 112.06 44.6584 112.5C44.4784 112.727 44.2084 112.913 43.8484 113.06C43.495 113.2 43.075 113.27 42.5884 113.27H41.5284V116H39.8184V108.98H42.5884C43.4017 108.98 44.035 109.19 44.4884 109.61C44.9417 110.03 45.1684 110.537 45.1684 111.13ZM41.5284 111.97H42.5884C42.8484 111.97 43.0517 111.893 43.1984 111.74C43.3517 111.587 43.4284 111.387 43.4284 111.14C43.4284 110.887 43.3517 110.68 43.1984 110.52C43.045 110.36 42.8417 110.28 42.5884 110.28H41.5284V111.97ZM48.4053 114.7H49.1653C49.8186 114.7 50.332 114.5 50.7053 114.1C51.0786 113.7 51.2653 113.163 51.2653 112.49C51.2653 111.817 51.0786 111.28 50.7053 110.88C50.332 110.48 49.8186 110.28 49.1653 110.28H48.4053V114.7ZM49.1653 108.98C50.2853 108.98 51.2053 109.307 51.9253 109.96C52.6453 110.607 53.0053 111.45 53.0053 112.49C53.0053 113.523 52.6453 114.367 51.9253 115.02C51.2053 115.673 50.2853 116 49.1653 116H46.6953V108.98H49.1653ZM54.5879 116V108.98H59.1579V110.28H56.2979V111.79H58.4379V113.09H56.2979V116H54.5879Z" fill="#0D0D0D"/>
</svg>
