<svg width="499" height="308" viewBox="0 0 499 308" fill="none" xmlns="http://www.w3.org/2000/svg">
<rect width="499" height="308" rx="20" fill="#0D0D0D"/>
<path d="M57.8314 245.364H59.2405V253.682C59.2405 254.424 59.1041 255.055 58.8314 255.574C58.5587 256.093 58.1742 256.487 57.678 256.756C57.1818 257.025 56.5966 257.159 55.9223 257.159C55.286 257.159 54.7197 257.044 54.2235 256.812C53.7272 256.578 53.3371 256.244 53.053 255.812C52.7689 255.381 52.6269 254.867 52.6269 254.273H54.0132C54.0132 254.602 54.0947 254.89 54.2575 255.136C54.4242 255.379 54.6515 255.568 54.9394 255.705C55.2272 255.841 55.5549 255.909 55.9223 255.909C56.3276 255.909 56.6723 255.824 56.9564 255.653C57.2405 255.483 57.4564 255.233 57.6041 254.903C57.7557 254.57 57.8314 254.163 57.8314 253.682V245.364ZM64.4507 257.205C63.8977 257.205 63.3958 257.1 62.945 256.892C62.4943 256.68 62.1363 256.375 61.8712 255.977C61.606 255.576 61.4735 255.091 61.4735 254.523C61.4735 254.023 61.5719 253.617 61.7689 253.307C61.9659 252.992 62.2291 252.746 62.5587 252.568C62.8882 252.39 63.2519 252.258 63.6496 252.17C64.0511 252.08 64.4545 252.008 64.8598 251.955C65.3901 251.886 65.82 251.835 66.1496 251.801C66.4829 251.763 66.7253 251.701 66.8769 251.614C67.0322 251.527 67.1098 251.375 67.1098 251.159V251.114C67.1098 250.553 66.9564 250.117 66.6496 249.807C66.3466 249.496 65.8863 249.341 65.2689 249.341C64.6288 249.341 64.1269 249.481 63.7632 249.761C63.3996 250.042 63.1439 250.341 62.9962 250.659L61.7235 250.205C61.9507 249.674 62.2538 249.261 62.6325 248.966C63.0151 248.667 63.4318 248.458 63.8825 248.341C64.3371 248.22 64.7841 248.159 65.2235 248.159C65.5038 248.159 65.8257 248.193 66.1894 248.261C66.5568 248.326 66.911 248.46 67.2519 248.665C67.5966 248.869 67.8825 249.178 68.1098 249.591C68.3371 250.004 68.4507 250.557 68.4507 251.25V257H67.1098V255.818H67.0416C66.9507 256.008 66.7992 256.21 66.5871 256.426C66.375 256.642 66.0928 256.826 65.7405 256.977C65.3882 257.129 64.9583 257.205 64.4507 257.205ZM64.6553 256C65.1856 256 65.6325 255.896 65.9962 255.688C66.3636 255.479 66.6401 255.21 66.8257 254.881C67.0151 254.551 67.1098 254.205 67.1098 253.841V252.614C67.053 252.682 66.928 252.744 66.7348 252.801C66.5454 252.854 66.3257 252.902 66.0757 252.943C65.8295 252.981 65.589 253.015 65.3541 253.045C65.1231 253.072 64.9356 253.095 64.7916 253.114C64.4432 253.159 64.1174 253.233 63.8144 253.335C63.5151 253.434 63.2727 253.583 63.0871 253.784C62.9053 253.981 62.8144 254.25 62.8144 254.591C62.8144 255.057 62.9867 255.409 63.3314 255.648C63.6799 255.883 64.1212 256 64.6553 256ZM72.2391 251.75V257H70.8982V248.273H72.1936V249.636H72.3073C72.5118 249.193 72.8224 248.837 73.2391 248.568C73.6557 248.295 74.1936 248.159 74.8527 248.159C75.4436 248.159 75.9607 248.28 76.4039 248.523C76.847 248.761 77.1917 249.125 77.4379 249.614C77.6842 250.098 77.8073 250.712 77.8073 251.455V257H76.4664V251.545C76.4664 250.86 76.2883 250.326 75.9323 249.943C75.5762 249.557 75.0876 249.364 74.4664 249.364C74.0383 249.364 73.6557 249.456 73.3186 249.642C72.9853 249.828 72.722 250.098 72.5289 250.455C72.3357 250.811 72.2391 251.242 72.2391 251.75Z" fill="#9291A5"/>
<rect x="299" y="234" width="75" height="34" rx="17" fill="#01F891"/>
<path d="M321.332 257H319.854L324.127 245.364H325.582L329.854 257H328.377L324.9 247.205H324.809L321.332 257ZM321.877 252.455H327.832V253.705H321.877V252.455ZM331.485 260.273V248.273H332.781V249.659H332.94C333.038 249.508 333.174 249.314 333.349 249.08C333.527 248.841 333.781 248.629 334.11 248.443C334.443 248.254 334.894 248.159 335.462 248.159C336.197 248.159 336.845 248.343 337.406 248.71C337.966 249.078 338.404 249.598 338.718 250.273C339.032 250.947 339.19 251.742 339.19 252.659C339.19 253.583 339.032 254.384 338.718 255.062C338.404 255.737 337.968 256.259 337.411 256.631C336.854 256.998 336.212 257.182 335.485 257.182C334.924 257.182 334.476 257.089 334.138 256.903C333.801 256.714 333.542 256.5 333.36 256.261C333.178 256.019 333.038 255.818 332.94 255.659H332.826V260.273H331.485ZM332.803 252.636C332.803 253.295 332.9 253.877 333.093 254.381C333.286 254.881 333.568 255.273 333.94 255.557C334.311 255.837 334.765 255.977 335.303 255.977C335.864 255.977 336.332 255.83 336.707 255.534C337.085 255.235 337.37 254.833 337.559 254.33C337.752 253.822 337.849 253.258 337.849 252.636C337.849 252.023 337.754 251.47 337.565 250.977C337.379 250.481 337.097 250.089 336.718 249.801C336.343 249.509 335.871 249.364 335.303 249.364C334.758 249.364 334.299 249.502 333.928 249.778C333.557 250.051 333.277 250.434 333.087 250.926C332.898 251.415 332.803 251.985 332.803 252.636ZM341.235 257V248.273H342.531V249.591H342.621C342.781 249.159 343.068 248.809 343.485 248.54C343.902 248.271 344.371 248.136 344.894 248.136C344.993 248.136 345.116 248.138 345.263 248.142C345.411 248.146 345.523 248.152 345.599 248.159V249.523C345.553 249.511 345.449 249.494 345.286 249.472C345.127 249.445 344.959 249.432 344.781 249.432C344.356 249.432 343.978 249.521 343.644 249.699C343.315 249.873 343.053 250.116 342.86 250.426C342.671 250.733 342.576 251.083 342.576 251.477V257H341.235ZM347.188 257V248.273H348.529V257H347.188ZM347.87 246.818C347.609 246.818 347.383 246.729 347.194 246.551C347.008 246.373 346.915 246.159 346.915 245.909C346.915 245.659 347.008 245.445 347.194 245.267C347.383 245.089 347.609 245 347.87 245C348.131 245 348.355 245.089 348.54 245.267C348.73 245.445 348.825 245.659 348.825 245.909C348.825 246.159 348.73 246.373 348.54 246.551C348.355 246.729 348.131 246.818 347.87 246.818ZM352.326 245.364V257H350.985V245.364H352.326Z" fill="#0D0D0D"/>
<path d="M138.44 257V245.364H145.418V246.614H139.849V250.545H144.895V251.795H139.849V257H138.44ZM150.668 257.182C149.827 257.182 149.101 256.996 148.491 256.625C147.885 256.25 147.418 255.727 147.088 255.057C146.762 254.383 146.599 253.598 146.599 252.705C146.599 251.811 146.762 251.023 147.088 250.341C147.418 249.655 147.876 249.121 148.463 248.739C149.054 248.352 149.743 248.159 150.531 248.159C150.986 248.159 151.435 248.235 151.878 248.386C152.321 248.538 152.724 248.784 153.088 249.125C153.452 249.462 153.741 249.909 153.957 250.466C154.173 251.023 154.281 251.708 154.281 252.523V253.091H147.554V251.932H152.918C152.918 251.439 152.819 251 152.622 250.614C152.429 250.227 152.152 249.922 151.793 249.699C151.437 249.475 151.016 249.364 150.531 249.364C149.997 249.364 149.535 249.496 149.145 249.761C148.759 250.023 148.461 250.364 148.253 250.784C148.045 251.205 147.94 251.655 147.94 252.136V252.909C147.94 253.568 148.054 254.127 148.281 254.585C148.512 255.04 148.832 255.386 149.241 255.625C149.651 255.86 150.126 255.977 150.668 255.977C151.02 255.977 151.338 255.928 151.622 255.83C151.91 255.727 152.158 255.576 152.366 255.375C152.575 255.17 152.736 254.917 152.849 254.614L154.145 254.977C154.009 255.417 153.779 255.803 153.457 256.136C153.135 256.466 152.738 256.723 152.264 256.909C151.791 257.091 151.259 257.182 150.668 257.182ZM156.503 257V245.364H157.844V249.659H157.957C158.056 249.508 158.192 249.314 158.366 249.08C158.545 248.841 158.798 248.629 159.128 248.443C159.461 248.254 159.912 248.159 160.48 248.159C161.215 248.159 161.863 248.343 162.423 248.71C162.984 249.078 163.421 249.598 163.736 250.273C164.05 250.947 164.207 251.742 164.207 252.659C164.207 253.583 164.05 254.384 163.736 255.062C163.421 255.737 162.986 256.259 162.429 256.631C161.872 256.998 161.23 257.182 160.503 257.182C159.942 257.182 159.493 257.089 159.156 256.903C158.819 256.714 158.56 256.5 158.378 256.261C158.196 256.019 158.056 255.818 157.957 255.659H157.798V257H156.503ZM157.821 252.636C157.821 253.295 157.918 253.877 158.111 254.381C158.304 254.881 158.586 255.273 158.957 255.557C159.329 255.837 159.783 255.977 160.321 255.977C160.882 255.977 161.349 255.83 161.724 255.534C162.103 255.235 162.387 254.833 162.577 254.33C162.77 253.822 162.866 253.258 162.866 252.636C162.866 252.023 162.772 251.47 162.582 250.977C162.397 250.481 162.115 250.089 161.736 249.801C161.361 249.509 160.889 249.364 160.321 249.364C159.776 249.364 159.317 249.502 158.946 249.778C158.575 250.051 158.295 250.434 158.105 250.926C157.916 251.415 157.821 251.985 157.821 252.636Z" fill="#9291A5"/>
<path d="M417.809 245.364H419.49L423.445 255.023H423.581L427.536 245.364H429.218V257H427.899V248.159H427.786L424.149 257H422.877L419.24 248.159H419.127V257H417.809V245.364ZM434.429 257.205C433.876 257.205 433.374 257.1 432.924 256.892C432.473 256.68 432.115 256.375 431.85 255.977C431.585 255.576 431.452 255.091 431.452 254.523C431.452 254.023 431.55 253.617 431.747 253.307C431.944 252.992 432.208 252.746 432.537 252.568C432.867 252.39 433.23 252.258 433.628 252.17C434.03 252.08 434.433 252.008 434.838 251.955C435.369 251.886 435.799 251.835 436.128 251.801C436.461 251.763 436.704 251.701 436.855 251.614C437.011 251.527 437.088 251.375 437.088 251.159V251.114C437.088 250.553 436.935 250.117 436.628 249.807C436.325 249.496 435.865 249.341 435.247 249.341C434.607 249.341 434.105 249.481 433.742 249.761C433.378 250.042 433.122 250.341 432.975 250.659L431.702 250.205C431.929 249.674 432.232 249.261 432.611 248.966C432.994 248.667 433.41 248.458 433.861 248.341C434.316 248.22 434.763 248.159 435.202 248.159C435.482 248.159 435.804 248.193 436.168 248.261C436.535 248.326 436.889 248.46 437.23 248.665C437.575 248.869 437.861 249.178 438.088 249.591C438.316 250.004 438.429 250.557 438.429 251.25V257H437.088V255.818H437.02C436.929 256.008 436.778 256.21 436.566 256.426C436.353 256.642 436.071 256.826 435.719 256.977C435.367 257.129 434.937 257.205 434.429 257.205ZM434.634 256C435.164 256 435.611 255.896 435.975 255.688C436.342 255.479 436.619 255.21 436.804 254.881C436.994 254.551 437.088 254.205 437.088 253.841V252.614C437.032 252.682 436.907 252.744 436.713 252.801C436.524 252.854 436.304 252.902 436.054 252.943C435.808 252.981 435.568 253.015 435.333 253.045C435.102 253.072 434.914 253.095 434.77 253.114C434.422 253.159 434.096 253.233 433.793 253.335C433.494 253.434 433.251 253.583 433.066 253.784C432.884 253.981 432.793 254.25 432.793 254.591C432.793 255.057 432.965 255.409 433.31 255.648C433.658 255.883 434.1 256 434.634 256ZM441.428 260.273C441.201 260.273 440.998 260.254 440.82 260.216C440.642 260.182 440.519 260.148 440.451 260.114L440.791 258.932C441.117 259.015 441.405 259.045 441.655 259.023C441.905 259 442.127 258.888 442.32 258.688C442.517 258.491 442.697 258.17 442.86 257.727L443.11 257.045L439.882 248.273H441.337L443.746 255.227H443.837L446.246 248.273H447.701L443.996 258.273C443.829 258.723 443.623 259.097 443.377 259.392C443.13 259.691 442.844 259.913 442.519 260.057C442.197 260.201 441.833 260.273 441.428 260.273Z" fill="#9291A5"/>
<path d="M222.808 245.364H224.489L228.444 255.023H228.58L232.535 245.364H234.217V257H232.898V248.159H232.785L229.148 257H227.876L224.239 248.159H224.126V257H222.808V245.364ZM239.428 257.205C238.875 257.205 238.373 257.1 237.923 256.892C237.472 256.68 237.114 256.375 236.849 255.977C236.584 255.576 236.451 255.091 236.451 254.523C236.451 254.023 236.549 253.617 236.746 253.307C236.943 252.992 237.207 252.746 237.536 252.568C237.866 252.39 238.229 252.258 238.627 252.17C239.029 252.08 239.432 252.008 239.837 251.955C240.368 251.886 240.798 251.835 241.127 251.801C241.46 251.763 241.703 251.701 241.854 251.614C242.01 251.527 242.087 251.375 242.087 251.159V251.114C242.087 250.553 241.934 250.117 241.627 249.807C241.324 249.496 240.864 249.341 240.246 249.341C239.606 249.341 239.104 249.481 238.741 249.761C238.377 250.042 238.121 250.341 237.974 250.659L236.701 250.205C236.928 249.674 237.231 249.261 237.61 248.966C237.993 248.667 238.409 248.458 238.86 248.341C239.315 248.22 239.762 248.159 240.201 248.159C240.481 248.159 240.803 248.193 241.167 248.261C241.534 248.326 241.888 248.46 242.229 248.665C242.574 248.869 242.86 249.178 243.087 249.591C243.315 250.004 243.428 250.557 243.428 251.25V257H242.087V255.818H242.019C241.928 256.008 241.777 256.21 241.565 256.426C241.353 256.642 241.07 256.826 240.718 256.977C240.366 257.129 239.936 257.205 239.428 257.205ZM239.633 256C240.163 256 240.61 255.896 240.974 255.688C241.341 255.479 241.618 255.21 241.803 254.881C241.993 254.551 242.087 254.205 242.087 253.841V252.614C242.031 252.682 241.906 252.744 241.712 252.801C241.523 252.854 241.303 252.902 241.053 252.943C240.807 252.981 240.567 253.015 240.332 253.045C240.101 253.072 239.913 253.095 239.769 253.114C239.421 253.159 239.095 253.233 238.792 253.335C238.493 253.434 238.25 253.583 238.065 253.784C237.883 253.981 237.792 254.25 237.792 254.591C237.792 255.057 237.964 255.409 238.309 255.648C238.657 255.883 239.099 256 239.633 256ZM245.876 257V248.273H247.171V249.591H247.262C247.421 249.159 247.709 248.809 248.126 248.54C248.542 248.271 249.012 248.136 249.535 248.136C249.633 248.136 249.756 248.138 249.904 248.142C250.052 248.146 250.164 248.152 250.239 248.159V249.523C250.194 249.511 250.09 249.494 249.927 249.472C249.768 249.445 249.599 249.432 249.421 249.432C248.997 249.432 248.618 249.521 248.285 249.699C247.955 249.873 247.694 250.116 247.501 250.426C247.311 250.733 247.217 251.083 247.217 251.477V257H245.876Z" fill="#9291A5"/>
<path opacity="0.33" d="M71.7895 133.01L28 178.435V222H249.775H471.55V185.8C462.558 176.963 442.946 157.382 436.434 149.754C428.295 140.219 413.179 144.638 402.714 144.405C392.249 144.173 387.598 135.336 388.063 121.382C388.528 107.429 385.97 107.894 378.528 102.313C372.575 97.8478 362.249 106.344 357.831 111.15C342.56 126.498 309.925 159.335 301.553 167.893C293.181 176.451 284.731 171.459 281.553 167.893C268.53 155.258 239.74 127.243 228.763 116.266C217.787 105.289 207.601 111.692 203.88 116.266C199.849 120.142 190.531 128.917 185.508 133.01C179.229 138.126 163.881 134.638 155.276 133.01C146.672 131.382 142.718 129.987 133.183 139.056C123.649 148.126 117.253 148.94 101.323 133.01C88.5795 120.266 76.3242 127.7 71.7895 133.01Z" fill="url(#paint0_linear_205_346)"/>
<path d="M29.9375 178.435L73.3447 133.01C77.8398 127.7 89.9881 120.266 102.621 133.01C118.412 148.94 124.751 148.126 134.203 139.056C143.654 129.987 147.573 131.382 156.102 133.01C164.632 134.638 179.846 138.126 186.071 133.01C191.05 128.917 200.286 120.142 204.282 116.266C207.97 111.692 218.067 105.289 228.948 116.266C239.829 127.243 268.368 155.258 281.277 167.893C284.428 171.459 292.803 176.451 301.102 167.893C309.401 159.335 341.751 126.498 356.889 111.15C361.269 106.344 371.504 97.8478 377.406 102.313C384.782 107.894 387.318 107.429 386.857 121.382C386.396 135.336 391.007 144.173 401.38 144.405C411.754 144.638 426.738 140.219 434.806 149.754C441.261 157.382 460.702 176.963 469.615 185.8" stroke="#01F891" stroke-width="4" stroke-linecap="round" stroke-linejoin="round"/>
<path d="M295.651 69V65.8977L302.899 59.1861C303.516 58.5895 304.033 58.0526 304.45 57.5753C304.875 57.098 305.196 56.6307 305.415 56.1733C305.634 55.7093 305.743 55.2088 305.743 54.6719C305.743 54.0753 305.607 53.5616 305.335 53.1307C305.063 52.6932 304.692 52.3584 304.222 52.1264C303.751 51.8878 303.217 51.7685 302.621 51.7685C301.998 51.7685 301.454 51.8944 300.99 52.1463C300.526 52.3982 300.168 52.7595 299.916 53.2301C299.664 53.7008 299.538 54.2609 299.538 54.9105H295.452C295.452 53.5781 295.753 52.4214 296.357 51.4403C296.96 50.4593 297.805 49.7003 298.892 49.1634C299.979 48.6264 301.232 48.358 302.651 48.358C304.109 48.358 305.378 48.6165 306.459 49.1335C307.546 49.6439 308.391 50.3532 308.994 51.2614C309.598 52.1695 309.899 53.2102 309.899 54.3835C309.899 55.1525 309.747 55.9115 309.442 56.6605C309.143 57.4096 308.61 58.2415 307.841 59.1562C307.072 60.0644 305.988 61.1548 304.589 62.4276L301.616 65.3409V65.4801H310.168V69H295.651ZM321.103 69.2784C320.055 69.2718 319.044 69.0961 318.07 68.7514C317.102 68.4067 316.234 67.8466 315.465 67.071C314.696 66.2955 314.086 65.268 313.635 63.9886C313.191 62.7093 312.969 61.1383 312.969 59.2756C312.976 57.5653 313.171 56.0374 313.556 54.6918C313.947 53.3395 314.504 52.1927 315.226 51.2514C315.955 50.3101 316.827 49.5942 317.841 49.1037C318.855 48.6065 319.992 48.358 321.252 48.358C322.611 48.358 323.81 48.6231 324.851 49.1534C325.892 49.6771 326.727 50.3897 327.357 51.2912C327.993 52.1927 328.378 53.2036 328.51 54.3239H324.265C324.099 53.6146 323.751 53.0578 323.221 52.6534C322.69 52.2491 322.034 52.0469 321.252 52.0469C319.926 52.0469 318.918 52.6236 318.229 53.777C317.546 54.9304 317.198 56.4981 317.185 58.4801H317.324C317.629 57.8769 318.04 57.3632 318.557 56.9389C319.081 56.508 319.674 56.1799 320.337 55.9545C321.007 55.7225 321.712 55.6065 322.455 55.6065C323.661 55.6065 324.735 55.8916 325.676 56.4616C326.618 57.0251 327.36 57.8007 327.904 58.7884C328.447 59.776 328.719 60.9062 328.719 62.179C328.719 63.5578 328.398 64.7841 327.755 65.858C327.118 66.9318 326.227 67.7737 325.08 68.3835C323.94 68.9867 322.614 69.285 321.103 69.2784ZM321.083 65.8977C321.746 65.8977 322.339 65.7386 322.863 65.4205C323.386 65.1023 323.797 64.6714 324.096 64.1278C324.394 63.5843 324.543 62.9744 324.543 62.2983C324.543 61.6222 324.394 61.0156 324.096 60.4787C323.804 59.9418 323.4 59.5142 322.882 59.196C322.365 58.8778 321.775 58.7188 321.113 58.7188C320.615 58.7188 320.155 58.8116 319.73 58.9972C319.313 59.1828 318.945 59.4413 318.627 59.7727C318.315 60.1042 318.07 60.4886 317.891 60.9261C317.712 61.357 317.623 61.8177 317.623 62.3082C317.623 62.9645 317.772 63.5644 318.07 64.108C318.375 64.6515 318.786 65.0857 319.303 65.4105C319.827 65.7353 320.42 65.8977 321.083 65.8977ZM339.756 69.4474C338.046 69.4408 336.574 69.0199 335.341 68.1847C334.115 67.3494 333.17 66.1397 332.507 64.5554C331.851 62.9711 331.526 61.0653 331.533 58.8381C331.533 56.6174 331.861 54.7249 332.517 53.1605C333.18 51.5961 334.125 50.4062 335.351 49.5909C336.584 48.7689 338.052 48.358 339.756 48.358C341.46 48.358 342.925 48.7689 344.151 49.5909C345.384 50.4129 346.332 51.6061 346.995 53.1705C347.658 54.7282 347.986 56.6174 347.979 58.8381C347.979 61.072 347.648 62.9811 346.985 64.5653C346.328 66.1496 345.387 67.3594 344.161 68.1946C342.935 69.0298 341.466 69.4474 339.756 69.4474ZM339.756 65.8778C340.923 65.8778 341.854 65.2912 342.55 64.1179C343.246 62.9446 343.591 61.1847 343.584 58.8381C343.584 57.2936 343.425 56.0076 343.107 54.9801C342.795 53.9527 342.351 53.1804 341.775 52.6634C341.204 52.1463 340.532 51.8878 339.756 51.8878C338.596 51.8878 337.668 52.4678 336.972 53.6278C336.276 54.7879 335.925 56.5246 335.918 58.8381C335.918 60.4025 336.074 61.7083 336.385 62.7557C336.703 63.7964 337.151 64.5786 337.728 65.1023C338.304 65.6193 338.98 65.8778 339.756 65.8778ZM354.872 66.2159L354.763 67.3097C354.677 68.1847 354.511 69.0563 354.266 69.9247C354.027 70.7997 353.775 71.5919 353.51 72.3011C353.251 73.0104 353.043 73.5672 352.884 73.9716H350.139C350.239 73.5805 350.375 73.0336 350.547 72.331C350.719 71.6349 350.882 70.8527 351.034 69.9844C351.187 69.116 351.283 68.2311 351.322 67.3295L351.372 66.2159H354.872ZM358.397 65.4205V62.0298L366.898 48.6364H369.822V53.3295H368.092L362.732 61.8111V61.9702H374.813V65.4205H358.397ZM368.171 69V64.3864L368.251 62.8849V48.6364H372.288V69H368.171ZM385.05 48.358C386.097 48.358 387.105 48.5336 388.072 48.8849C389.047 49.2363 389.915 49.7964 390.678 50.5653C391.446 51.3343 392.053 52.3551 392.497 53.6278C392.948 54.8939 393.177 56.4484 393.183 58.2912C393.183 60.0213 392.988 61.5658 392.597 62.9247C392.212 64.277 391.659 65.4271 390.936 66.375C390.214 67.3229 389.342 68.0455 388.321 68.5426C387.3 69.0331 386.16 69.2784 384.901 69.2784C383.542 69.2784 382.342 69.0166 381.301 68.4929C380.26 67.9626 379.422 67.2434 378.786 66.3352C378.156 65.4205 377.775 64.393 377.642 63.2528H381.888C382.054 63.9953 382.402 64.572 382.932 64.983C383.462 65.3873 384.118 65.5895 384.901 65.5895C386.226 65.5895 387.234 65.0128 387.923 63.8594C388.613 62.6993 388.961 61.1117 388.967 59.0966H388.828C388.523 59.6932 388.112 60.2069 387.595 60.6378C387.078 61.062 386.485 61.3902 385.815 61.6222C385.152 61.8542 384.446 61.9702 383.697 61.9702C382.498 61.9702 381.427 61.6884 380.486 61.125C379.545 60.5616 378.802 59.786 378.259 58.7983C377.715 57.8106 377.443 56.6837 377.443 55.4176C377.437 54.0521 377.751 52.8357 378.388 51.7685C379.024 50.7012 379.912 49.866 381.053 49.2628C382.199 48.6529 383.532 48.3513 385.05 48.358ZM385.08 51.7386C384.41 51.7386 383.813 51.8977 383.29 52.2159C382.773 52.5341 382.362 52.9616 382.057 53.4986C381.759 54.0355 381.613 54.6354 381.619 55.2983C381.619 55.9678 381.765 56.571 382.057 57.108C382.355 57.6383 382.759 58.0625 383.27 58.3807C383.787 58.6922 384.377 58.848 385.04 58.848C385.537 58.848 385.998 58.7552 386.422 58.5696C386.846 58.384 387.214 58.1288 387.526 57.804C387.844 57.4725 388.092 57.0914 388.271 56.6605C388.45 56.2296 388.54 55.7723 388.54 55.2884C388.533 54.6454 388.381 54.0554 388.082 53.5185C387.784 52.9815 387.373 52.5507 386.849 52.2259C386.326 51.901 385.736 51.7386 385.08 51.7386ZM403.534 48.358C404.581 48.358 405.589 48.5336 406.557 48.8849C407.531 49.2363 408.4 49.7964 409.162 50.5653C409.931 51.3343 410.537 52.3551 410.982 53.6278C411.432 54.8939 411.661 56.4484 411.668 58.2912C411.668 60.0213 411.472 61.5658 411.081 62.9247C410.696 64.277 410.143 65.4271 409.42 66.375C408.698 67.3229 407.826 68.0455 406.805 68.5426C405.785 69.0331 404.644 69.2784 403.385 69.2784C402.026 69.2784 400.826 69.0166 399.786 68.4929C398.745 67.9626 397.906 67.2434 397.27 66.3352C396.64 65.4205 396.259 64.393 396.126 63.2528H400.372C400.538 63.9953 400.886 64.572 401.416 64.983C401.946 65.3873 402.603 65.5895 403.385 65.5895C404.711 65.5895 405.718 65.0128 406.408 63.8594C407.097 62.6993 407.445 61.1117 407.452 59.0966H407.312C407.008 59.6932 406.597 60.2069 406.08 60.6378C405.563 61.062 404.969 61.3902 404.3 61.6222C403.637 61.8542 402.931 61.9702 402.182 61.9702C400.982 61.9702 399.911 61.6884 398.97 61.125C398.029 60.5616 397.286 59.786 396.743 58.7983C396.199 57.8106 395.928 56.6837 395.928 55.4176C395.921 54.0521 396.236 52.8357 396.872 51.7685C397.509 50.7012 398.397 49.866 399.537 49.2628C400.684 48.6529 402.016 48.3513 403.534 48.358ZM403.564 51.7386C402.894 51.7386 402.298 51.8977 401.774 52.2159C401.257 52.5341 400.846 52.9616 400.541 53.4986C400.243 54.0355 400.097 54.6354 400.104 55.2983C400.104 55.9678 400.25 56.571 400.541 57.108C400.839 57.6383 401.244 58.0625 401.754 58.3807C402.271 58.6922 402.861 58.848 403.524 58.848C404.021 58.848 404.482 58.7552 404.906 58.5696C405.33 58.384 405.698 58.1288 406.01 57.804C406.328 57.4725 406.577 57.0914 406.756 56.6605C406.935 56.2296 407.024 55.7723 407.024 55.2884C407.018 54.6454 406.865 54.0554 406.567 53.5185C406.268 52.9815 405.857 52.5507 405.334 52.2259C404.81 51.901 404.22 51.7386 403.564 51.7386Z" fill="white"/>
<path d="M436.504 64V62.8864L439.949 59.3168C440.317 58.929 440.62 58.5893 440.859 58.2976C441.101 58.0026 441.282 57.7225 441.401 57.4574C441.52 57.1922 441.58 56.9105 441.58 56.6122C441.58 56.2741 441.5 55.9825 441.341 55.7372C441.182 55.4886 440.965 55.2981 440.69 55.1655C440.415 55.0296 440.105 54.9616 439.76 54.9616C439.396 54.9616 439.077 55.0362 438.806 55.1854C438.534 55.3345 438.325 55.545 438.179 55.8168C438.033 56.0885 437.96 56.4067 437.96 56.7713H436.494C436.494 56.1515 436.636 55.6096 436.921 55.1456C437.206 54.6816 437.598 54.322 438.095 54.0668C438.592 53.8082 439.157 53.679 439.79 53.679C440.43 53.679 440.993 53.8066 441.48 54.0618C441.971 54.3137 442.354 54.6584 442.629 55.0959C442.904 55.5301 443.041 56.0206 443.041 56.5675C443.041 56.9453 442.97 57.3149 442.828 57.6761C442.688 58.0374 442.445 58.4401 442.097 58.8842C441.749 59.325 441.265 59.8603 440.645 60.4901L438.622 62.608V62.6825H443.206V64H436.504ZM448.634 64.1392C447.952 64.1392 447.342 64.0215 446.805 63.7862C446.271 63.5509 445.849 63.2244 445.537 62.8068C445.229 62.3859 445.063 61.8987 445.04 61.3452H446.601C446.621 61.6468 446.722 61.9086 446.904 62.1307C447.09 62.3494 447.332 62.5185 447.63 62.6378C447.929 62.7571 448.26 62.8168 448.625 62.8168C449.026 62.8168 449.38 62.7472 449.688 62.608C450 62.4687 450.244 62.2749 450.419 62.0263C450.595 61.7744 450.683 61.4844 450.683 61.1562C450.683 60.8149 450.595 60.5149 450.419 60.2564C450.247 59.9946 449.993 59.7891 449.659 59.6399C449.327 59.4908 448.926 59.4162 448.456 59.4162H447.595V58.1634H448.456C448.833 58.1634 449.165 58.0954 449.45 57.9595C449.738 57.8236 449.964 57.6347 450.126 57.3928C450.288 57.1475 450.37 56.8608 450.37 56.5327C450.37 56.2178 450.298 55.9444 450.156 55.7124C450.017 55.477 449.818 55.2931 449.559 55.1605C449.304 55.0279 449.002 54.9616 448.654 54.9616C448.323 54.9616 448.013 55.023 447.725 55.1456C447.44 55.2649 447.208 55.4373 447.029 55.6626C446.85 55.8847 446.754 56.1515 446.74 56.4631H445.254C445.27 55.9129 445.433 55.429 445.741 55.0114C446.053 54.5937 446.464 54.2673 446.974 54.032C447.484 53.7966 448.051 53.679 448.674 53.679C449.327 53.679 449.891 53.8066 450.365 54.0618C450.842 54.3137 451.21 54.6501 451.468 55.071C451.73 55.492 451.859 55.9527 451.856 56.4531C451.859 57.0232 451.7 57.5071 451.379 57.9048C451.061 58.3026 450.636 58.5694 450.106 58.7053V58.7848C450.782 58.8875 451.306 59.156 451.677 59.5902C452.052 60.0244 452.237 60.563 452.234 61.206C452.237 61.7661 452.081 62.2682 451.767 62.7124C451.455 63.1565 451.029 63.5062 450.489 63.7614C449.949 64.0133 449.331 64.1392 448.634 64.1392ZM459.428 62.0909V61.554C459.428 61.1695 459.507 60.8182 459.666 60.5C459.829 60.1785 460.064 59.9216 460.372 59.7294C460.684 59.5339 461.06 59.4361 461.501 59.4361C461.952 59.4361 462.33 59.5322 462.634 59.7244C462.939 59.9167 463.17 60.1735 463.326 60.495C463.485 60.8165 463.564 61.1695 463.564 61.554V62.0909C463.564 62.4754 463.485 62.8284 463.326 63.1499C463.166 63.468 462.933 63.7249 462.625 63.9205C462.32 64.1127 461.945 64.2088 461.501 64.2088C461.054 64.2088 460.676 64.1127 460.367 63.9205C460.059 63.7249 459.826 63.468 459.666 63.1499C459.507 62.8284 459.428 62.4754 459.428 62.0909ZM460.586 61.554V62.0909C460.586 62.3759 460.654 62.6345 460.79 62.8665C460.926 63.0985 461.163 63.2145 461.501 63.2145C461.836 63.2145 462.069 63.0985 462.202 62.8665C462.335 62.6345 462.401 62.3759 462.401 62.0909V61.554C462.401 61.2689 462.336 61.0104 462.207 60.7784C462.081 60.5464 461.846 60.4304 461.501 60.4304C461.17 60.4304 460.934 60.5464 460.795 60.7784C460.656 61.0104 460.586 61.2689 460.586 61.554ZM454.307 56.2642V55.7273C454.307 55.3428 454.387 54.9898 454.546 54.6683C454.708 54.3468 454.943 54.09 455.252 53.8977C455.563 53.7055 455.939 53.6094 456.38 53.6094C456.831 53.6094 457.209 53.7055 457.514 53.8977C457.819 54.09 458.049 54.3468 458.205 54.6683C458.361 54.9898 458.438 55.3428 458.438 55.7273V56.2642C458.438 56.6487 458.359 57.0017 458.2 57.3232C458.044 57.6413 457.812 57.8982 457.504 58.0938C457.199 58.286 456.824 58.3821 456.38 58.3821C455.929 58.3821 455.55 58.286 455.242 58.0938C454.937 57.8982 454.705 57.6413 454.546 57.3232C454.387 57.0017 454.307 56.6487 454.307 56.2642ZM455.47 55.7273V56.2642C455.47 56.5492 455.537 56.8078 455.669 57.0398C455.805 57.2718 456.042 57.3878 456.38 57.3878C456.712 57.3878 456.944 57.2718 457.076 57.0398C457.212 56.8078 457.28 56.5492 457.28 56.2642V55.7273C457.28 55.4422 457.215 55.1837 457.086 54.9517C456.957 54.7197 456.722 54.6037 456.38 54.6037C456.049 54.6037 455.813 54.7197 455.674 54.9517C455.538 55.1837 455.47 55.4422 455.47 55.7273ZM454.779 64L461.779 53.8182H462.968L455.968 64H454.779Z" fill="#DCDEE7"/>
<path d="M426.485 55.8804C427.248 54.8133 428.834 54.8133 429.597 55.8804L432.722 60.2481C433.627 61.5145 432.722 63.2749 431.165 63.2749H424.917C423.36 63.2749 422.455 61.5145 423.361 60.2481L426.485 55.8804Z" fill="#01F891"/>
<circle cx="336.5" cy="134.5" r="7" fill="#01F891" stroke="#0D0D0D" stroke-width="3"/>
<path d="M39.2734 59H42.6563V69.3906C42.6563 70.5573 42.3776 71.5781 41.8203 72.4531C41.2682 73.3281 40.4948 74.0104 39.5 74.5C38.5052 74.9844 37.3464 75.2266 36.0234 75.2266C34.6953 75.2266 33.5339 74.9844 32.5391 74.5C31.5443 74.0104 30.7708 73.3281 30.2188 72.4531C29.6667 71.5781 29.3906 70.5573 29.3906 69.3906V59H32.7734V69.1016C32.7734 69.7109 32.9063 70.2526 33.1719 70.7266C33.4427 71.2005 33.8229 71.5729 34.3125 71.8438C34.8021 72.1146 35.3724 72.25 36.0234 72.25C36.6797 72.25 37.25 72.1146 37.7344 71.8438C38.224 71.5729 38.6016 71.2005 38.8672 70.7266C39.138 70.2526 39.2734 69.7109 39.2734 69.1016V59ZM55.3613 66.4219L52.3145 66.6094C52.2624 66.349 52.1504 66.1146 51.9785 65.9062C51.8066 65.6927 51.5801 65.5234 51.2988 65.3984C51.0228 65.2682 50.6921 65.2031 50.3066 65.2031C49.791 65.2031 49.3561 65.3125 49.002 65.5312C48.6478 65.7448 48.4707 66.0312 48.4707 66.3906C48.4707 66.6771 48.5853 66.9193 48.8145 67.1172C49.0436 67.3151 49.4368 67.474 49.9941 67.5937L52.166 68.0312C53.3327 68.2708 54.2025 68.6562 54.7754 69.1875C55.3483 69.7187 55.6348 70.4167 55.6348 71.2812C55.6348 72.0677 55.403 72.7578 54.9395 73.3516C54.4811 73.9453 53.8509 74.4089 53.0488 74.7422C52.252 75.0703 51.3327 75.2344 50.291 75.2344C48.7025 75.2344 47.4368 74.9036 46.4941 74.2422C45.5566 73.5755 45.0072 72.6693 44.8457 71.5234L48.1191 71.3516C48.2181 71.8359 48.4577 72.2057 48.8379 72.4609C49.2181 72.7109 49.7051 72.8359 50.2988 72.8359C50.8822 72.8359 51.3509 72.724 51.7051 72.5C52.0645 72.2708 52.2467 71.9766 52.252 71.6172C52.2467 71.3151 52.1191 71.0677 51.8691 70.875C51.6191 70.6771 51.2337 70.526 50.7129 70.4219L48.6348 70.0078C47.4629 69.7734 46.5905 69.3672 46.0176 68.7891C45.4499 68.2109 45.166 67.474 45.166 66.5781C45.166 65.8073 45.3743 65.1432 45.791 64.5859C46.2129 64.0286 46.804 63.599 47.5645 63.2969C48.3301 62.9948 49.2259 62.8438 50.252 62.8438C51.7676 62.8438 52.9603 63.1641 53.8301 63.8047C54.7051 64.4453 55.2155 65.3177 55.3613 66.4219ZM63.1992 75.2344C61.9648 75.2344 60.9023 74.9844 60.0117 74.4844C59.1263 73.9792 58.444 73.2656 57.9648 72.3437C57.4857 71.4167 57.2461 70.3203 57.2461 69.0547C57.2461 67.8203 57.4857 66.737 57.9648 65.8047C58.444 64.8724 59.1185 64.1458 59.9883 63.625C60.8633 63.1042 61.8893 62.8438 63.0664 62.8438C63.8581 62.8438 64.5951 62.9714 65.2773 63.2266C65.9648 63.4766 66.5638 63.8542 67.0742 64.3594C67.5898 64.8646 67.9909 65.5 68.2773 66.2656C68.5638 67.026 68.707 67.9167 68.707 68.9375V69.8516H58.5742V67.7891H65.5742C65.5742 67.3099 65.4701 66.8854 65.2617 66.5156C65.0534 66.1458 64.7643 65.8568 64.3945 65.6484C64.0299 65.4349 63.6055 65.3281 63.1211 65.3281C62.6159 65.3281 62.168 65.4453 61.7773 65.6797C61.3919 65.9089 61.0898 66.2187 60.8711 66.6094C60.6523 66.9948 60.5404 67.4245 60.5352 67.8984V69.8594C60.5352 70.4531 60.6445 70.9661 60.8633 71.3984C61.0872 71.8307 61.4023 72.1641 61.8086 72.3984C62.2148 72.6328 62.6966 72.75 63.2539 72.75C63.6237 72.75 63.9622 72.6979 64.2695 72.5938C64.5768 72.4896 64.8398 72.3333 65.0586 72.125C65.2773 71.9167 65.444 71.6615 65.5586 71.3594L68.6367 71.5625C68.4805 72.3021 68.1602 72.9479 67.6758 73.5C67.1966 74.0469 66.5768 74.474 65.8164 74.7813C65.0612 75.0833 64.1888 75.2344 63.1992 75.2344ZM70.8789 75V63H74.1055V65.0937H74.2305C74.4492 64.349 74.8164 63.7865 75.332 63.4063C75.8477 63.0208 76.4414 62.8281 77.1133 62.8281C77.2799 62.8281 77.4596 62.8385 77.6523 62.8594C77.8451 62.8802 78.0143 62.9089 78.1602 62.9453V65.8984C78.0039 65.8516 77.7878 65.8099 77.5117 65.7734C77.2357 65.737 76.9831 65.7188 76.7539 65.7188C76.2643 65.7188 75.8268 65.8255 75.4414 66.0391C75.0612 66.2474 74.7591 66.5391 74.5352 66.9141C74.3164 67.2891 74.207 67.7214 74.207 68.2109V75H70.8789ZM85.0352 75V59H91.3477C92.556 59 93.5872 59.2161 94.4414 59.6484C95.3008 60.0755 95.9544 60.6823 96.4023 61.4688C96.8555 62.25 97.082 63.1693 97.082 64.2266C97.082 65.2891 96.8529 66.2031 96.3945 66.9687C95.9362 67.7292 95.2721 68.3125 94.4023 68.7187C93.5378 69.125 92.4909 69.3281 91.2617 69.3281H87.0352V66.6094H90.7148C91.3607 66.6094 91.8971 66.5208 92.3242 66.3438C92.7513 66.1667 93.069 65.901 93.2773 65.5469C93.4909 65.1927 93.5977 64.7526 93.5977 64.2266C93.5977 63.6953 93.4909 63.2474 93.2773 62.8828C93.069 62.5182 92.7487 62.2422 92.3164 62.0547C91.8893 61.862 91.3503 61.7656 90.6992 61.7656H88.418V75H85.0352ZM93.6758 67.7188L97.6523 75H93.918L90.0273 67.7188H93.6758ZM104.686 75.2344C103.451 75.2344 102.389 74.9844 101.498 74.4844C100.613 73.9792 99.9303 73.2656 99.4512 72.3437C98.972 71.4167 98.7324 70.3203 98.7324 69.0547C98.7324 67.8203 98.972 66.737 99.4512 65.8047C99.9303 64.8724 100.605 64.1458 101.475 63.625C102.35 63.1042 103.376 62.8438 104.553 62.8438C105.344 62.8438 106.081 62.9714 106.764 63.2266C107.451 63.4766 108.05 63.8542 108.561 64.3594C109.076 64.8646 109.477 65.5 109.764 66.2656C110.05 67.026 110.193 67.9167 110.193 68.9375V69.8516H100.061V67.7891H107.061C107.061 67.3099 106.956 66.8854 106.748 66.5156C106.54 66.1458 106.251 65.8568 105.881 65.6484C105.516 65.4349 105.092 65.3281 104.607 65.3281C104.102 65.3281 103.654 65.4453 103.264 65.6797C102.878 65.9089 102.576 66.2187 102.357 66.6094C102.139 66.9948 102.027 67.4245 102.021 67.8984V69.8594C102.021 70.4531 102.131 70.9661 102.35 71.3984C102.574 71.8307 102.889 72.1641 103.295 72.3984C103.701 72.6328 104.183 72.75 104.74 72.75C105.11 72.75 105.449 72.6979 105.756 72.5938C106.063 72.4896 106.326 72.3333 106.545 72.125C106.764 71.9167 106.93 71.6615 107.045 71.3594L110.123 71.5625C109.967 72.3021 109.646 72.9479 109.162 73.5C108.683 74.0469 108.063 74.474 107.303 74.7813C106.548 75.0833 105.675 75.2344 104.686 75.2344ZM122.35 66.4219L119.303 66.6094C119.251 66.349 119.139 66.1146 118.967 65.9062C118.795 65.6927 118.568 65.5234 118.287 65.3984C118.011 65.2682 117.68 65.2031 117.295 65.2031C116.779 65.2031 116.344 65.3125 115.99 65.5312C115.636 65.7448 115.459 66.0312 115.459 66.3906C115.459 66.6771 115.574 66.9193 115.803 67.1172C116.032 67.3151 116.425 67.474 116.982 67.5937L119.154 68.0312C120.321 68.2708 121.191 68.6562 121.764 69.1875C122.337 69.7187 122.623 70.4167 122.623 71.2812C122.623 72.0677 122.391 72.7578 121.928 73.3516C121.469 73.9453 120.839 74.4089 120.037 74.7422C119.24 75.0703 118.321 75.2344 117.279 75.2344C115.691 75.2344 114.425 74.9036 113.482 74.2422C112.545 73.5755 111.995 72.6693 111.834 71.5234L115.107 71.3516C115.206 71.8359 115.446 72.2057 115.826 72.4609C116.206 72.7109 116.693 72.8359 117.287 72.8359C117.87 72.8359 118.339 72.724 118.693 72.5C119.053 72.2708 119.235 71.9766 119.24 71.6172C119.235 71.3151 119.107 71.0677 118.857 70.875C118.607 70.6771 118.222 70.526 117.701 70.4219L115.623 70.0078C114.451 69.7734 113.579 69.3672 113.006 68.7891C112.438 68.2109 112.154 67.474 112.154 66.5781C112.154 65.8073 112.363 65.1432 112.779 64.5859C113.201 64.0286 113.792 63.599 114.553 63.2969C115.318 62.9948 116.214 62.8438 117.24 62.8438C118.756 62.8438 119.949 63.1641 120.818 63.8047C121.693 64.4453 122.204 65.3177 122.35 66.4219ZM130.188 75.2344C128.953 75.2344 127.891 74.9844 127 74.4844C126.115 73.9792 125.432 73.2656 124.953 72.3437C124.474 71.4167 124.234 70.3203 124.234 69.0547C124.234 67.8203 124.474 66.737 124.953 65.8047C125.432 64.8724 126.107 64.1458 126.977 63.625C127.852 63.1042 128.878 62.8438 130.055 62.8438C130.846 62.8438 131.583 62.9714 132.266 63.2266C132.953 63.4766 133.552 63.8542 134.063 64.3594C134.578 64.8646 134.979 65.5 135.266 66.2656C135.552 67.026 135.695 67.9167 135.695 68.9375V69.8516H125.563V67.7891H132.563C132.563 67.3099 132.458 66.8854 132.25 66.5156C132.042 66.1458 131.753 65.8568 131.383 65.6484C131.018 65.4349 130.594 65.3281 130.109 65.3281C129.604 65.3281 129.156 65.4453 128.766 65.6797C128.38 65.9089 128.078 66.2187 127.859 66.6094C127.641 66.9948 127.529 67.4245 127.523 67.8984V69.8594C127.523 70.4531 127.633 70.9661 127.852 71.3984C128.076 71.8307 128.391 72.1641 128.797 72.3984C129.203 72.6328 129.685 72.75 130.242 72.75C130.612 72.75 130.951 72.6979 131.258 72.5938C131.565 72.4896 131.828 72.3333 132.047 72.125C132.266 71.9167 132.432 71.6615 132.547 71.3594L135.625 71.5625C135.469 72.3021 135.148 72.9479 134.664 73.5C134.185 74.0469 133.565 74.474 132.805 74.7813C132.049 75.0833 131.177 75.2344 130.188 75.2344ZM141.289 75.2266C140.523 75.2266 139.841 75.0938 139.242 74.8281C138.643 74.5573 138.169 74.1589 137.82 73.6328C137.477 73.1016 137.305 72.4401 137.305 71.6484C137.305 70.9818 137.427 70.4219 137.672 69.9687C137.917 69.5156 138.25 69.151 138.672 68.875C139.094 68.599 139.573 68.3906 140.109 68.25C140.651 68.1094 141.219 68.0104 141.813 67.9531C142.51 67.8802 143.073 67.8125 143.5 67.75C143.927 67.6823 144.237 67.5833 144.43 67.4531C144.622 67.3229 144.719 67.1302 144.719 66.875V66.8281C144.719 66.3333 144.563 65.9505 144.25 65.6797C143.943 65.4089 143.505 65.2734 142.937 65.2734C142.339 65.2734 141.862 65.4062 141.508 65.6719C141.154 65.9323 140.919 66.2604 140.805 66.6562L137.727 66.4062C137.883 65.6771 138.19 65.0469 138.648 64.5156C139.107 63.9792 139.698 63.5677 140.422 63.2812C141.151 62.9896 141.995 62.8438 142.953 62.8438C143.62 62.8438 144.258 62.9219 144.867 63.0781C145.482 63.2344 146.026 63.4766 146.5 63.8047C146.979 64.1328 147.357 64.5547 147.633 65.0703C147.909 65.5807 148.047 66.1927 148.047 66.9062V75H144.891V73.3359H144.797C144.604 73.7109 144.346 74.0417 144.023 74.3281C143.701 74.6094 143.312 74.8307 142.859 74.9922C142.406 75.1484 141.883 75.2266 141.289 75.2266ZM142.242 72.9297C142.732 72.9297 143.164 72.8333 143.539 72.6406C143.914 72.4427 144.208 72.1771 144.422 71.8438C144.635 71.5104 144.742 71.1328 144.742 70.7109V69.4375C144.638 69.5052 144.495 69.5677 144.313 69.625C144.135 69.6771 143.935 69.7266 143.711 69.7734C143.487 69.8151 143.263 69.8542 143.039 69.8906C142.815 69.9219 142.612 69.9505 142.43 69.9766C142.039 70.0339 141.698 70.125 141.406 70.25C141.115 70.375 140.888 70.5443 140.727 70.7578C140.565 70.9661 140.484 71.2266 140.484 71.5391C140.484 71.9922 140.648 72.3385 140.977 72.5781C141.31 72.8125 141.732 72.9297 142.242 72.9297ZM150.629 75V63H153.855V65.0937H153.98C154.199 64.349 154.566 63.7865 155.082 63.4063C155.598 63.0208 156.191 62.8281 156.863 62.8281C157.03 62.8281 157.21 62.8385 157.402 62.8594C157.595 62.8802 157.764 62.9089 157.91 62.9453V65.8984C157.754 65.8516 157.538 65.8099 157.262 65.7734C156.986 65.737 156.733 65.7188 156.504 65.7188C156.014 65.7188 155.577 65.8255 155.191 66.0391C154.811 66.2474 154.509 66.5391 154.285 66.9141C154.066 67.2891 153.957 67.7214 153.957 68.2109V75H150.629ZM164.494 75.2344C163.265 75.2344 162.208 74.974 161.322 74.4531C160.442 73.9271 159.765 73.1979 159.291 72.2656C158.822 71.3333 158.588 70.2604 158.588 69.0469C158.588 67.8177 158.825 66.7396 159.299 65.8125C159.778 64.8802 160.458 64.1536 161.338 63.6328C162.218 63.1068 163.265 62.8438 164.479 62.8438C165.525 62.8438 166.442 63.0339 167.229 63.4141C168.015 63.7943 168.637 64.3281 169.096 65.0156C169.554 65.7031 169.807 66.5104 169.854 67.4375H166.713C166.624 66.8385 166.39 66.3568 166.01 65.9922C165.635 65.6224 165.143 65.4375 164.533 65.4375C164.018 65.4375 163.567 65.5781 163.182 65.8594C162.801 66.1354 162.505 66.5391 162.291 67.0703C162.077 67.6016 161.971 68.2448 161.971 69C161.971 69.7656 162.075 70.4167 162.283 70.9531C162.497 71.4896 162.796 71.8984 163.182 72.1797C163.567 72.4609 164.018 72.6016 164.533 72.6016C164.913 72.6016 165.255 72.5234 165.557 72.3672C165.864 72.2109 166.117 71.9844 166.314 71.6875C166.518 71.3854 166.65 71.0234 166.713 70.6016H169.854C169.801 71.5182 169.551 72.3255 169.104 73.0234C168.661 73.7161 168.049 74.2578 167.268 74.6484C166.486 75.0391 165.562 75.2344 164.494 75.2344ZM175.313 68.0625V75H171.984V59H175.219V65.1172H175.359C175.63 64.4089 176.068 63.8542 176.672 63.4531C177.276 63.0469 178.034 62.8438 178.945 62.8438C179.779 62.8438 180.505 63.026 181.125 63.3906C181.75 63.75 182.234 64.2682 182.578 64.9453C182.927 65.6172 183.099 66.4219 183.094 67.3594V75H179.766V67.9531C179.771 67.2135 179.583 66.638 179.203 66.2266C178.828 65.8151 178.302 65.6094 177.625 65.6094C177.172 65.6094 176.771 65.7057 176.422 65.8984C176.078 66.0911 175.807 66.3724 175.609 66.7422C175.417 67.1068 175.318 67.5469 175.313 68.0625Z" fill="#DCDEE7"/>
<path d="M29.5852 46V32.9091H37.4858V34.3153H31.1705V38.7386H37.0767V40.1449H31.1705V44.5938H37.5881V46H29.5852ZM40.1385 46V36.1818H41.5959V37.7159H41.7237C41.9283 37.1918 42.2585 36.7848 42.7145 36.495C43.1705 36.201 43.718 36.054 44.3572 36.054C45.005 36.054 45.544 36.201 45.9744 36.495C46.4091 36.7848 46.7479 37.1918 46.9908 37.7159H47.093C47.3445 37.2088 47.7216 36.8061 48.2244 36.5078C48.7273 36.2053 49.3303 36.054 50.0334 36.054C50.9112 36.054 51.6293 36.3288 52.1875 36.8786C52.7457 37.424 53.0249 38.2741 53.0249 39.429V46H51.5163V39.429C51.5163 38.7045 51.3182 38.1868 50.9219 37.8757C50.5256 37.5646 50.0589 37.4091 49.522 37.4091C48.8317 37.4091 48.2969 37.6179 47.9176 38.0355C47.5384 38.4489 47.3487 38.973 47.3487 39.608V46H45.8146V39.2756C45.8146 38.7173 45.6335 38.2678 45.2713 37.9268C44.9091 37.5817 44.4425 37.4091 43.8714 37.4091C43.4794 37.4091 43.1129 37.5135 42.772 37.7223C42.4354 37.9311 42.1626 38.2209 41.9538 38.5916C41.7493 38.9581 41.647 39.3821 41.647 39.8636V46H40.1385ZM55.783 49.6818V36.1818H57.2404V37.7415H57.4194C57.5302 37.571 57.6836 37.3537 57.8796 37.0895C58.0799 36.821 58.3654 36.5824 58.7362 36.3736C59.1112 36.1605 59.6183 36.054 60.2575 36.054C61.0842 36.054 61.8129 36.2607 62.4435 36.674C63.0742 37.0874 63.5664 37.6733 63.9201 38.4318C64.2738 39.1903 64.4506 40.0852 64.4506 41.1165C64.4506 42.1562 64.2738 43.0575 63.9201 43.8203C63.5664 44.5788 63.0763 45.1669 62.4499 45.5845C61.8235 45.9979 61.1012 46.2045 60.283 46.2045C59.6523 46.2045 59.1474 46.1001 58.7681 45.8913C58.3888 45.6783 58.0969 45.4375 57.8924 45.169C57.6879 44.8963 57.5302 44.6705 57.4194 44.4915H57.2915V49.6818H55.783ZM57.266 41.0909C57.266 41.8324 57.3746 42.4865 57.592 43.0533C57.8093 43.6158 58.1268 44.0568 58.5444 44.3764C58.962 44.6918 59.4734 44.8494 60.0785 44.8494C60.7092 44.8494 61.2354 44.6832 61.6573 44.3509C62.0835 44.0142 62.4031 43.5625 62.6161 42.9957C62.8335 42.4247 62.9421 41.7898 62.9421 41.0909C62.9421 40.4006 62.8356 39.7784 62.6225 39.2244C62.4137 38.6662 62.0962 38.2251 61.6701 37.9013C61.2482 37.5732 60.7177 37.4091 60.0785 37.4091C59.4648 37.4091 58.9492 37.5646 58.5316 37.8757C58.114 38.1825 57.7987 38.6129 57.5856 39.1669C57.3725 39.7166 57.266 40.358 57.266 41.0909ZM69.641 46.2301C69.0188 46.2301 68.4542 46.1129 67.9471 45.8786C67.44 45.6399 67.0373 45.2969 66.739 44.8494C66.4407 44.3977 66.2915 43.8523 66.2915 43.2131C66.2915 42.6506 66.4023 42.1946 66.6239 41.8452C66.8455 41.4915 67.1417 41.2145 67.5124 41.0142C67.8832 40.8139 68.2923 40.6648 68.7397 40.5668C69.1914 40.4645 69.6452 40.3835 70.1012 40.3239C70.6978 40.2472 71.1815 40.1896 71.5522 40.1513C71.9272 40.1087 72.1999 40.0384 72.3704 39.9403C72.5451 39.8423 72.6325 39.6719 72.6325 39.429V39.3778C72.6325 38.7472 72.4599 38.2571 72.1147 37.9077C71.7738 37.5582 71.256 37.3835 70.5614 37.3835C69.8413 37.3835 69.2766 37.5412 68.8675 37.8565C68.4585 38.1719 68.1708 38.5085 68.0046 38.8665L66.5728 38.3551C66.8285 37.7585 67.1694 37.294 67.5955 36.9616C68.0259 36.625 68.4947 36.3906 69.0018 36.2585C69.5131 36.1222 70.016 36.054 70.5103 36.054C70.8256 36.054 71.1879 36.0923 71.5969 36.169C72.0103 36.2415 72.4087 36.3928 72.7923 36.6229C73.18 36.853 73.5018 37.2003 73.7575 37.6648C74.0131 38.1293 74.141 38.7514 74.141 39.5312V46H72.6325V44.6705H72.5558C72.4535 44.8835 72.283 45.1115 72.0444 45.3544C71.8058 45.5973 71.4883 45.804 71.092 45.9744C70.6957 46.1449 70.212 46.2301 69.641 46.2301ZM69.8711 44.875C70.4677 44.875 70.9705 44.7578 71.3796 44.5234C71.793 44.2891 72.104 43.9865 72.3129 43.6158C72.5259 43.245 72.6325 42.8551 72.6325 42.446V41.0653C72.5685 41.142 72.4279 41.2124 72.2106 41.2763C71.9975 41.3359 71.7504 41.3892 71.4691 41.4361C71.1921 41.4787 70.9215 41.517 70.6573 41.5511C70.3974 41.581 70.1864 41.6065 70.0245 41.6278C69.6325 41.679 69.266 41.7621 68.9251 41.8771C68.5884 41.9879 68.3157 42.1562 68.1069 42.3821C67.9023 42.6037 67.8001 42.9062 67.8001 43.2898C67.8001 43.8139 67.994 44.2102 68.3817 44.4787C68.7738 44.7429 69.2702 44.875 69.8711 44.875ZM81.1642 36.1818V37.4602H76.0762V36.1818H81.1642ZM77.5591 33.8295H79.0676V43.1875C79.0676 43.6136 79.1294 43.9332 79.253 44.1463C79.3809 44.3551 79.5428 44.4957 79.7388 44.5682C79.9391 44.6364 80.15 44.6705 80.3716 44.6705C80.5378 44.6705 80.6742 44.6619 80.7807 44.6449C80.8873 44.6236 80.9725 44.6065 81.0364 44.5938L81.3432 45.9489C81.2409 45.9872 81.0982 46.0256 80.915 46.0639C80.7317 46.1065 80.4995 46.1278 80.2182 46.1278C79.7921 46.1278 79.3745 46.0362 78.9654 45.853C78.5605 45.6697 78.2239 45.3906 77.9554 45.0156C77.6912 44.6406 77.5591 44.1676 77.5591 43.5966V33.8295ZM85.1529 40.0938V46H83.6444V32.9091H85.1529V37.7159H85.2807C85.5108 37.2088 85.856 36.8061 86.3162 36.5078C86.7807 36.2053 87.3986 36.054 88.1699 36.054C88.839 36.054 89.4249 36.1882 89.9277 36.4567C90.4306 36.7209 90.8205 37.1278 91.0975 37.6776C91.3787 38.223 91.5194 38.9176 91.5194 39.7614V46H90.0108V39.8636C90.0108 39.0838 89.8084 38.4808 89.4036 38.0547C89.003 37.6243 88.4469 37.4091 87.7353 37.4091C87.2409 37.4091 86.7978 37.5135 86.4057 37.7223C86.0179 37.9311 85.7111 38.2358 85.4853 38.6364C85.2637 39.0369 85.1529 39.5227 85.1529 40.0938ZM94.2791 46V36.1818H95.7876V46H94.2791ZM95.0462 34.5455C94.7521 34.5455 94.4986 34.4453 94.2855 34.245C94.0767 34.0447 93.9723 33.804 93.9723 33.5227C93.9723 33.2415 94.0767 33.0007 94.2855 32.8004C94.4986 32.6001 94.7521 32.5 95.0462 32.5C95.3402 32.5 95.5916 32.6001 95.8004 32.8004C96.0135 33.0007 96.12 33.2415 96.12 33.5227C96.12 33.804 96.0135 34.0447 95.8004 34.245C95.5916 34.4453 95.3402 34.5455 95.0462 34.5455ZM98.2694 46V44.8494L103.843 37.6903V37.5881H98.4483V36.1818H105.786V37.3835L100.366 44.4915V44.5938H105.965V46H98.2694ZM112.124 46.2045C111.178 46.2045 110.362 45.9957 109.676 45.5781C108.994 45.1562 108.468 44.5682 108.097 43.8139C107.731 43.0554 107.547 42.1733 107.547 41.1676C107.547 40.1619 107.731 39.2756 108.097 38.5085C108.468 37.7372 108.983 37.1364 109.644 36.706C110.309 36.2713 111.084 36.054 111.971 36.054C112.482 36.054 112.987 36.1392 113.486 36.3097C113.984 36.4801 114.438 36.7571 114.847 37.1406C115.256 37.5199 115.582 38.0227 115.825 38.6491C116.068 39.2756 116.189 40.0469 116.189 40.9631V41.6023H108.621V40.2983H114.655C114.655 39.7443 114.545 39.25 114.323 38.8153C114.106 38.3807 113.795 38.0376 113.39 37.7862C112.989 37.5348 112.516 37.4091 111.971 37.4091C111.37 37.4091 110.85 37.5582 110.411 37.8565C109.976 38.1506 109.642 38.5341 109.407 39.0071C109.173 39.4801 109.056 39.9872 109.056 40.5284V41.3977C109.056 42.1392 109.184 42.7678 109.439 43.2834C109.699 43.7947 110.059 44.1847 110.52 44.4531C110.98 44.7173 111.515 44.8494 112.124 44.8494C112.52 44.8494 112.878 44.794 113.198 44.6832C113.522 44.5682 113.801 44.3977 114.035 44.1719C114.27 43.9418 114.451 43.6562 114.579 43.3153L116.036 43.7244C115.883 44.2188 115.625 44.6534 115.263 45.0284C114.9 45.3991 114.453 45.6889 113.92 45.8977C113.388 46.1023 112.789 46.2045 112.124 46.2045Z" fill="#9291A5"/>
<defs>
<linearGradient id="paint0_linear_205_346" x1="249.775" y1="123" x2="249.775" y2="202" gradientUnits="userSpaceOnUse">
<stop stop-color="#3BF786" stop-opacity="0.5"/>
<stop offset="0.552083" stop-color="#10D376" stop-opacity="0.19"/>
<stop offset="1" stop-color="#1F2221" stop-opacity="0.31"/>
</linearGradient>
</defs>
</svg>
