<svg xmlns="http://www.w3.org/2000/svg" viewBox="0 0 727 94"><defs><style>.a{fill:#100e1b;}</style></defs><title>3ele-11</title><polygon class="a" points="114.28 58.46 109.86 58.46 102.58 29.34 94.52 29.34 103.88 65.74 120.26 65.74 129.62 29.34 121.56 29.34 114.28 58.46"/><rect class="a" x="133" y="39.22" width="7.28" height="26.52"/><path class="a" d="M136.64,28a4.12,4.12,0,0,0-2.94,1.17,3.66,3.66,0,0,0,0,5.46,4.28,4.28,0,0,0,5.88,0,3.66,3.66,0,0,0,0-5.46A4.12,4.12,0,0,0,136.64,28Z"/><path class="a" d="M161.24,49.88l-1.36-.29-1.35-.28-1.25-.26a10.22,10.22,0,0,1-1.17-.32l-1-.33a4.29,4.29,0,0,1-.88-.37,7.49,7.49,0,0,1-.63-.41,1.41,1.41,0,0,1-.44-.52,1.38,1.38,0,0,1-.13-.6A1.74,1.74,0,0,1,153.9,45a5,5,0,0,1,2.76-.6,6.55,6.55,0,0,1,4.26,1.3,4.06,4.06,0,0,1,.94,1.3h7.28a10.12,10.12,0,0,0-2-4.27q-3.48-4.3-10.45-4.31-5.21,0-8.19,2.36a7.08,7.08,0,0,0-3,5.7q0,6.28,8.22,8.06l1.69.36c.78.18,1.35.3,1.71.37s.85.18,1.46.34a9.09,9.09,0,0,1,1.38.44c.31.14.64.3,1,.49a1.93,1.93,0,0,1,.73.62,1.43,1.43,0,0,1,.21.76q0,2.6-4.42,2.6a6.23,6.23,0,0,1-4.58-1.66,5.06,5.06,0,0,1-1.14-1.72h-7.54a14.1,14.1,0,0,0,2.34,4.68q3.54,4.68,10.92,4.68c3.67,0,6.59-.85,8.74-2.55a7.51,7.51,0,0,0,3.22-6Q169.4,51.7,161.24,49.88Z"/><rect class="a" x="173.56" y="39.22" width="7.28" height="26.52"/><path class="a" d="M177.2,28a4.12,4.12,0,0,0-2.94,1.17,3.66,3.66,0,0,0,0,5.46,4.28,4.28,0,0,0,5.88,0,3.66,3.66,0,0,0,0-5.46A4.12,4.12,0,0,0,177.2,28Z"/><path class="a" d="M199.56,38.44a14.25,14.25,0,0,0-10.4,4.08,14,14,0,0,0,0,19.92,15.26,15.26,0,0,0,20.77,0,13.93,13.93,0,0,0,0-19.92A14.28,14.28,0,0,0,199.56,38.44Zm5,19.65a6.78,6.78,0,0,1-10,0,7.86,7.86,0,0,1-2-5.61,7.91,7.91,0,0,1,2-5.62,6.8,6.8,0,0,1,10,0,8,8,0,0,1,2,5.62A7.91,7.91,0,0,1,204.55,58.09Z"/><path class="a" d="M234.14,38.44a10.14,10.14,0,0,0-6.4,2.23,7.54,7.54,0,0,0-1.92,2.19h-.26V39.22h-7.28V65.74h7.28v-14a7.18,7.18,0,0,1,1.82-5.05,5.81,5.81,0,0,1,4.42-2,5.25,5.25,0,0,1,4,1.53,6.33,6.33,0,0,1,1.43,4.45V65.74h7.28V49.62q0-5.46-2.73-8.32T234.14,38.44Z"/><path class="a" d="M80.93,41a24.14,24.14,0,0,0-2-6A25,25,0,0,0,73,27.09a23.43,23.43,0,0,0-6.29-4,22.18,22.18,0,0,0-6.11-1.72c-.74-.09-1.49-.17-2.23-.19a26.18,26.18,0,0,0-2.66.05,23.17,23.17,0,0,0-2.35.28A22.38,22.38,0,0,0,49,22.71l-.64.26.1.18a10,10,0,0,1,1.21,4.78,10.76,10.76,0,0,1-.15,1.88A9.8,9.8,0,0,1,47.06,35a9.41,9.41,0,0,1-6.53,3.19,9.09,9.09,0,0,1-3.31-.39,9.22,9.22,0,0,1-2-.89l0,.07a25.58,25.58,0,0,0-1.42,5.7c-.11.91-.19,1.81-.21,2.72,0,.52,0,1,0,1.58a28.45,28.45,0,0,0,.37,3.56A25.08,25.08,0,0,0,41,64.13a23.5,23.5,0,0,0,6,4.32,23,23,0,0,0,10.06,2.47q.53,0,1.05,0a22.39,22.39,0,0,0,4.53-.58,23.52,23.52,0,0,0,11.73-6.68A23.81,23.81,0,0,0,77.31,60a22.22,22.22,0,0,0,1.53-2.69,25.66,25.66,0,0,0,2.59-10.46,24.19,24.19,0,0,0-.1-3.18C81.23,42.77,81.1,41.87,80.93,41ZM66,48.26A8.93,8.93,0,0,1,61.79,54a8,8,0,0,1-3.55,1.14l-.64,0a8.41,8.41,0,0,1-6.08-2.43,8.71,8.71,0,0,1-2.69-5.06,9.38,9.38,0,0,1,.4-4.88v0a9.49,9.49,0,0,1,1.94-3.12,8.52,8.52,0,0,1,11.51-1,8.87,8.87,0,0,1,3.43,5.72c.1.55.13,1.09.18,1.54A12.24,12.24,0,0,1,66,48.26Z"/><path class="a" d="M366,51.24a8.07,8.07,0,0,1-2.11,5.9,8.59,8.59,0,0,1-11.39,0,8.11,8.11,0,0,1-2.1-5.9V29.14h-7.8v22.1q0,7,4.21,11.18t11.39,4.16q7.17,0,11.39-4.16t4.21-11.18V29.14H366Z"/><path class="a" d="M395,49.68l-1.35-.29-1.35-.29c-.35-.06-.76-.15-1.25-.26a8.67,8.67,0,0,1-1.17-.31l-1-.34a4.76,4.76,0,0,1-.89-.36,6.79,6.79,0,0,1-.62-.42,1.26,1.26,0,0,1-.44-.52,1.37,1.37,0,0,1-.13-.59,1.76,1.76,0,0,1,.88-1.49,5.1,5.1,0,0,1,2.76-.59,6.55,6.55,0,0,1,4.26,1.3,4,4,0,0,1,.94,1.3h7.28a10.12,10.12,0,0,0-2-4.27q-3.48-4.3-10.45-4.31-5.2,0-8.19,2.36a7.05,7.05,0,0,0-3,5.7q0,6.29,8.21,8.06l1.69.36c.78.17,1.35.3,1.72.36s.85.19,1.45.34a10.93,10.93,0,0,1,1.38.44c.32.14.64.31,1,.5a1.93,1.93,0,0,1,.73.62,1.43,1.43,0,0,1,.21.76c0,1.73-1.48,2.6-4.42,2.6a6.2,6.2,0,0,1-4.58-1.67A4.93,4.93,0,0,1,385.46,57h-7.54a14,14,0,0,0,2.34,4.68c2.36,3.12,6,4.68,10.92,4.68q5.51,0,8.73-2.55a7.52,7.52,0,0,0,3.23-6Q403.14,51.5,395,49.68Z"/><path class="a" d="M420,38.24a13.93,13.93,0,0,0-10.17,4.08,14.06,14.06,0,0,0,0,19.91A13.9,13.9,0,0,0,420,66.32,13.46,13.46,0,0,0,433.82,57H426a5.34,5.34,0,0,1-1.25,1.56A7.4,7.4,0,0,1,420,60.08a6.25,6.25,0,0,1-4.42-1.82,7.53,7.53,0,0,1-2.34-4.42h20.8V52.28a13.78,13.78,0,0,0-3.95-10A13.5,13.5,0,0,0,420,38.24Zm-6.5,11.18a7,7,0,0,1,2.34-3.54,6.32,6.32,0,0,1,4.16-1.4,6.14,6.14,0,0,1,4.13,1.43,6,6,0,0,1,2.11,3.51Z"/><path class="a" d="M447.44,40.73a6.09,6.09,0,0,0-1.4,2.19h-.26V39H438.5V65.54h7.28v-14a5.81,5.81,0,0,1,1.64-4.4,6.31,6.31,0,0,1,4.6-1.58h3.9v-7H452.8A7.09,7.09,0,0,0,447.44,40.73Z"/><path class="a" d="M320.79,28.51c-.24-.25-.48-.5-.74-.74A21.81,21.81,0,0,0,316.43,25a23.46,23.46,0,0,0-13-3.58,25,25,0,0,0-4.65.52,26.34,26.34,0,0,0-3,.82,25.61,25.61,0,0,0-9.23,5.57,21.66,21.66,0,0,0-2.17,2.32c-.57.7-1.12,1.43-1.63,2.19a24,24,0,0,0-2.84,5.6,24.74,24.74,0,0,0-1.39,9.8,23.46,23.46,0,0,0,1.59,7.3,22.15,22.15,0,0,0,3.11,5.53,21.15,21.15,0,0,0,1.44,1.72c.6.64,1.25,1.26,1.91,1.84s1.22,1,1.86,1.46a22.3,22.3,0,0,0,4,2.22l.64.27a.74.74,0,0,1,.05-.19,10.18,10.18,0,0,1,2.53-4.25A11.1,11.1,0,0,1,297,62.9a9.92,9.92,0,0,1,5.42-1.9,9.46,9.46,0,0,1,6.87,2.37A9,9,0,0,1,311.4,66a9.55,9.55,0,0,1,.81,2.08l.08,0a26.34,26.34,0,0,0,5-3c.71-.56,1.41-1.15,2.07-1.78.37-.36.74-.73,1.1-1.12a26.36,26.36,0,0,0,2.26-2.78,25.07,25.07,0,0,0,4.59-14.66,23.8,23.8,0,0,0-1.19-7.3A23,23,0,0,0,320.79,28.51ZM310.18,50.79A9.4,9.4,0,0,1,306.44,54h0a9.36,9.36,0,0,1-3.57.83A8.52,8.52,0,0,1,294,47.35a8.9,8.9,0,0,1,1.62-6.48c.31-.45.68-.86,1-1.2a11.19,11.19,0,0,1,1.87-1.43,8.93,8.93,0,0,1,7-1.09,8,8,0,0,1,3.33,1.71c.16.14.32.28.47.43a8.43,8.43,0,0,1,2.58,6A8.78,8.78,0,0,1,310.18,50.79Z"/><path class="a" d="M589.37,55.66a10.86,10.86,0,0,1-8.53,3.64,11.4,11.4,0,0,1-8.5-3.25,11.89,11.89,0,0,1-3.2-8.71,11.76,11.76,0,0,1,3.3-8.61,12.21,12.21,0,0,1,16.72-.08,9.45,9.45,0,0,1,2.08,3.23h8.06A18.87,18.87,0,0,0,595.92,35q-5.25-6.91-15.08-6.91a19.81,19.81,0,0,0-14.38,5.48,18.4,18.4,0,0,0-5.64,13.76,18.39,18.39,0,0,0,5.64,13.75,19.77,19.77,0,0,0,14.38,5.49A18.12,18.12,0,0,0,596,59.3,22.42,22.42,0,0,0,599.56,52H591.5A11.61,11.61,0,0,1,589.37,55.66Z"/><path class="a" d="M623.48,42.4h-.26a12,12,0,0,0-2-2.08,10.29,10.29,0,0,0-6.29-2.08,11.28,11.28,0,0,0-8.71,3.87,14.56,14.56,0,0,0-3.51,10.17,14.55,14.55,0,0,0,3.51,10.16,11.26,11.26,0,0,0,8.71,3.88,10.35,10.35,0,0,0,6.29-2.08,12.78,12.78,0,0,0,2-2.08h.26v3.38h7.28V39h-7.28ZM621.61,58a6.31,6.31,0,0,1-4.89,2.06A6,6,0,0,1,612,58a8.43,8.43,0,0,1-1.82-5.72A8.39,8.39,0,0,1,612,46.56a5.92,5.92,0,0,1,4.68-2.08,6.31,6.31,0,0,1,4.89,2.05,8.21,8.21,0,0,1,1.87,5.75A8.2,8.2,0,0,1,621.61,58Z"/><polygon class="a" points="661.96 39.02 653.9 39.02 646.88 48.9 643.76 48.9 643.76 29.14 636.48 29.14 636.48 65.54 643.76 65.54 643.76 55.14 647.66 55.14 654.42 65.54 662.74 65.54 653.38 51.24 661.96 39.02"/><path class="a" d="M690.56,52.28a13.78,13.78,0,0,0-3.95-10,13.5,13.5,0,0,0-10.09-4,13.93,13.93,0,0,0-10.17,4.08,14.06,14.06,0,0,0,0,19.91,13.9,13.9,0,0,0,10.17,4.09A13.46,13.46,0,0,0,690.3,57h-7.8a5.34,5.34,0,0,1-1.25,1.56,7.4,7.4,0,0,1-4.73,1.56,6.26,6.26,0,0,1-4.42-1.82,7.64,7.64,0,0,1-2.34-4.42h20.8ZM670,49.42a7.1,7.1,0,0,1,2.34-3.54,6.32,6.32,0,0,1,4.16-1.4,6.13,6.13,0,0,1,4.13,1.43,6,6,0,0,1,2.11,3.51Z"/><path class="a" d="M547,41.76a22,22,0,0,0-1.23-4.37c-.08-.21-.17-.42-.26-.64l-.18.09a10.18,10.18,0,0,1-4.79,1.22,11.6,11.6,0,0,1-1.87-.15,10,10,0,0,1-5.18-2.49,9.46,9.46,0,0,1-3.18-6.53,9.06,9.06,0,0,1,.38-3.31,9.75,9.75,0,0,1,.9-2s0,0-.07,0a25,25,0,0,0-5.71-1.42,24.71,24.71,0,0,0-2.72-.21c-.52,0-1,0-1.57,0a25.22,25.22,0,0,0-17.18,7.49,23.64,23.64,0,0,0-4.31,6,23.14,23.14,0,0,0-2.48,10.07c0,.35,0,.69,0,1a23,23,0,0,0,.59,4.53,23.4,23.4,0,0,0,6.68,11.74,23.81,23.81,0,0,0,3.66,2.92,25.12,25.12,0,0,0,2.68,1.53,25.66,25.66,0,0,0,10.46,2.59,22.54,22.54,0,0,0,3.18-.11q1.35-.14,2.7-.39a24.87,24.87,0,0,0,13.88-7.9,23.55,23.55,0,0,0,4-6.29A22.42,22.42,0,0,0,547.16,49a20.75,20.75,0,0,0,.2-2.23,26.24,26.24,0,0,0-.05-2.66A23.32,23.32,0,0,0,547,41.76Zm-17.2,9.29a8.91,8.91,0,0,1-5.72,3.43c-.54.09-1.09.13-1.53.17a11.49,11.49,0,0,1-2.33-.31,8.91,8.91,0,0,1-5.73-4.19,8.17,8.17,0,0,1-1.15-3.56c0-.21,0-.42,0-.63a8.42,8.42,0,0,1,2.42-6.09,8.88,8.88,0,0,1,5.07-2.69,9.49,9.49,0,0,1,4.88.41h0a9.13,9.13,0,0,1,3.11,1.94,8.16,8.16,0,0,1,2.65,4.87A8.28,8.28,0,0,1,529.83,51.05Z"/></svg>