<svg width="777" height="777" viewBox="0 0 777 777" fill="none" xmlns="http://www.w3.org/2000/svg">
<path fill-rule="evenodd" clip-rule="evenodd" d="M429.508 634.486C433.062 635.671 437.801 635.671 441.356 634.486C438.986 627.377 435.432 621.453 428.323 616.714C424.768 614.344 421.214 613.159 417.659 611.974C414.105 610.789 410.55 610.789 406.995 610.789C408.18 617.898 411.735 625.008 417.659 629.747C421.214 632.117 425.953 634.486 429.508 634.486ZM406.995 598.941C410.55 598.941 414.105 597.756 416.474 595.386C420.029 593.017 422.398 590.647 424.768 588.277C428.323 582.353 429.508 575.244 429.508 568.135C427.138 569.32 423.583 570.504 421.214 571.689L414.105 578.798C409.365 584.723 406.995 591.832 406.995 598.941ZM465.053 620.268C472.162 623.823 481.641 623.823 488.75 621.453C485.195 615.529 480.456 609.604 472.162 607.235C468.608 606.05 465.053 604.865 461.498 604.865H450.835C453.205 610.789 457.944 616.714 465.053 620.268ZM447.28 591.832C450.835 590.647 453.205 589.462 456.759 587.092C459.129 584.723 461.498 582.353 462.683 578.798C465.053 571.689 465.053 564.58 462.683 557.471C456.759 559.841 453.205 564.58 449.65 571.689C446.095 577.614 446.095 584.723 447.28 591.832ZM508.892 602.495C517.186 604.865 525.48 602.495 532.589 598.941C527.85 593.017 521.926 589.462 513.632 588.277C510.077 587.092 505.338 587.092 501.783 587.092C498.229 587.092 494.674 588.277 491.12 589.462C494.674 595.386 500.598 600.126 508.892 602.495ZM498.229 561.026C499.414 553.917 498.229 546.808 494.674 540.883C489.935 544.438 486.38 550.362 485.195 557.471C484.011 564.58 484.011 571.689 486.38 578.798C488.75 576.429 492.304 575.244 494.674 571.689L498.229 561.026ZM570.505 568.135C564.58 563.395 557.471 561.026 550.362 561.026C546.808 561.026 542.068 561.026 538.514 562.211C534.959 563.395 531.405 564.58 529.035 566.95C533.774 572.874 539.698 576.429 547.992 576.429C556.286 576.429 563.395 572.874 570.505 568.135ZM521.926 518.371C518.371 523.111 516.001 529.035 514.817 536.144C514.817 543.253 516.002 550.362 520.741 556.286C523.111 553.917 525.48 551.547 526.665 547.992C527.85 544.438 529.035 540.883 529.035 537.329C529.035 530.22 526.665 523.111 521.926 518.371ZM597.756 534.959L602.495 530.22C596.571 526.665 588.277 525.48 581.168 526.665L570.505 530.22C566.95 531.404 564.58 533.774 561.026 536.144C566.95 540.883 574.059 543.253 582.353 542.068C585.908 542.068 590.647 539.698 594.201 537.329C594.201 537.329 596.571 536.144 597.756 534.959ZM555.101 519.556C556.286 516.001 556.286 512.447 555.101 508.892C553.917 501.783 549.177 495.859 544.438 491.12C543.253 492.304 543.253 493.489 542.068 494.674C542.068 495.859 540.883 498.229 540.883 499.414C539.698 502.968 540.883 506.523 540.883 510.077C542.068 517.186 545.623 524.295 550.362 529.035C552.732 525.48 555.101 523.111 555.101 519.556ZM622.638 493.489C623.823 492.305 625.008 489.935 626.192 488.75C619.083 486.38 611.974 486.38 604.865 489.935C601.311 491.12 597.756 493.489 595.386 495.859C593.017 498.229 589.462 500.598 588.277 504.153C594.201 507.708 602.495 508.892 609.604 505.338C613.159 504.153 616.714 501.783 620.268 499.414C620.268 495.859 621.453 494.674 622.638 493.489ZM577.614 485.195C577.614 481.641 577.614 478.086 576.429 474.532C574.059 467.423 568.135 462.683 562.211 459.129C562.211 460.314 561.026 461.498 561.026 463.868V468.608C561.026 472.162 562.211 474.532 563.395 478.086C565.765 485.195 570.505 491.12 576.429 494.674C576.429 492.304 577.614 488.75 577.614 485.195ZM626.192 460.314C633.301 455.574 638.041 449.65 640.411 441.356C633.301 440.171 626.192 442.541 619.083 446.095C615.529 448.465 613.159 450.835 610.789 453.205C608.42 455.574 606.05 459.129 604.865 462.683C611.974 465.053 619.083 463.868 626.192 460.314ZM572.874 425.953C571.689 431.877 572.874 437.801 576.429 444.911C579.983 450.835 585.908 455.574 591.832 459.129C593.017 455.574 593.017 452.02 593.017 448.465C593.017 444.911 591.832 441.356 589.462 438.986C585.908 431.877 579.983 428.323 572.874 425.953ZM645.15 398.701C645.15 396.332 646.335 395.147 646.335 392.777C642.78 392.777 639.226 393.962 635.671 395.147C632.117 396.332 629.747 398.701 626.192 401.071C623.823 403.441 621.453 406.995 619.083 410.55C616.714 414.105 615.529 417.659 615.529 421.214C622.638 422.398 629.747 420.029 635.671 414.104C639.226 411.735 641.595 408.18 642.78 404.626C643.965 402.256 645.15 401.071 645.15 398.701ZM584.723 408.18C589.462 412.92 596.571 417.659 602.495 418.844C602.495 415.289 602.495 411.735 601.311 408.18C600.126 404.626 597.756 402.256 595.386 398.701C593.017 396.332 589.462 393.962 587.092 392.777C583.538 391.592 579.983 390.408 576.429 390.408C576.429 391.592 576.429 393.962 577.614 395.147C577.614 396.332 578.798 398.701 578.798 399.886C581.168 402.256 582.353 405.811 584.723 408.18ZM642.78 344.198C639.226 345.383 635.671 346.568 633.301 348.938C629.747 351.308 627.377 353.677 625.008 357.232C623.823 358.417 622.638 360.786 622.638 361.971C621.453 363.156 621.453 365.526 620.268 366.711C619.083 370.265 619.083 373.82 617.898 377.374C621.453 377.374 625.008 376.189 628.562 373.82C632.117 372.635 634.486 369.08 636.856 366.711C639.226 363.156 641.595 359.601 641.595 356.047C641.595 353.677 642.78 352.492 642.78 350.123C643.965 347.753 643.965 345.383 642.78 344.198ZM595.386 376.189C598.941 377.374 602.495 378.559 606.05 378.559C606.05 375.004 604.865 371.45 602.495 369.08C601.311 367.895 600.126 366.711 598.941 364.341L595.386 360.786C591.832 358.417 589.462 357.232 585.908 356.047C582.353 354.862 578.798 354.862 575.244 356.047C575.244 357.232 576.429 358.417 576.429 360.786C577.614 361.971 577.614 363.156 578.798 364.341C581.168 366.711 582.353 369.08 585.908 371.45C588.277 372.635 591.832 375.004 595.386 376.189ZM613.159 318.132C613.159 320.501 611.974 321.686 611.974 324.056V334.72C615.529 333.535 619.083 332.35 621.453 329.98C623.823 327.611 627.377 325.241 628.562 320.501C629.747 316.947 630.932 313.392 632.117 308.653C632.117 305.098 632.117 300.359 630.932 296.804C625.008 300.359 619.083 305.098 615.529 312.208C615.529 313.392 614.344 314.577 614.344 314.577C614.344 315.762 613.159 316.947 613.159 318.132ZM589.462 322.871C588.277 322.871 588.277 321.686 587.092 321.686C579.983 318.132 572.874 318.132 565.765 320.501C566.95 322.871 568.135 325.241 570.505 327.611C572.874 329.98 575.244 332.35 578.798 333.535L589.462 337.089H600.126C600.126 335.904 598.941 333.535 597.756 332.35C596.571 331.165 595.386 329.98 594.201 327.611L590.647 324.056L589.462 322.871ZM596.571 270.738C595.386 274.292 595.386 279.032 595.386 282.586C595.386 284.956 595.386 286.141 596.571 288.511C596.571 290.88 597.756 292.065 597.756 293.25C603.68 289.695 609.605 283.771 610.789 276.662C611.974 273.108 611.974 268.368 611.974 264.814C611.974 261.259 609.604 256.52 608.42 252.965C602.495 256.52 598.941 263.629 596.571 270.738ZM579.983 290.88C577.614 288.511 574.059 287.326 570.505 286.141C563.395 284.956 556.286 286.141 550.362 289.695C551.547 292.065 553.917 294.435 557.471 295.62C559.841 297.989 563.395 299.174 566.95 299.174C574.059 301.544 581.168 300.359 588.277 297.989C587.092 296.805 585.908 295.62 585.908 293.25C582.353 293.25 581.168 290.88 579.983 290.88ZM570.505 234.008C570.505 237.562 570.504 242.301 571.689 245.856C572.874 249.411 574.059 252.965 576.429 256.52C582.353 251.78 585.908 245.856 585.908 237.562C585.908 229.268 583.538 220.974 578.798 215.05C574.059 218.605 571.689 225.714 570.505 234.008ZM527.85 261.259C532.589 264.814 538.514 268.368 545.623 268.368C552.732 268.368 559.841 267.183 565.765 263.629C563.395 261.259 561.026 258.889 557.471 257.705C553.917 256.52 550.362 255.335 546.808 255.335C540.883 252.965 533.774 256.52 527.85 261.259ZM379.744 598.941C379.744 591.832 377.374 584.723 373.82 578.798C371.45 575.244 369.08 572.874 366.711 571.689C364.341 569.32 360.786 568.135 358.417 568.135C357.232 575.244 358.417 582.353 363.156 588.277C365.526 591.832 367.895 594.201 371.45 595.386C372.635 596.571 376.189 597.756 379.744 598.941ZM378.559 610.789C375.005 610.789 371.45 611.974 367.895 611.974C364.341 613.159 360.786 614.344 357.232 616.714C351.308 621.453 346.568 627.377 344.198 634.486H356.047C359.601 633.301 364.341 632.117 366.711 629.747C373.82 625.008 377.374 617.898 378.559 610.789ZM338.274 591.832C339.459 584.723 338.274 577.614 335.905 570.504C332.35 563.395 328.795 559.841 322.871 556.286C320.501 563.395 320.501 570.504 322.871 577.614C324.056 581.168 326.426 583.538 328.795 585.907C332.35 589.462 335.905 590.647 338.274 591.832ZM320.501 620.268C327.611 616.714 332.35 610.789 334.72 603.68C331.165 602.495 327.611 602.495 324.056 603.68C320.501 603.68 316.947 604.865 313.392 606.05C306.283 609.604 300.359 614.344 296.805 620.268C305.098 623.823 313.392 623.823 320.501 620.268ZM288.511 561.026C289.695 564.58 290.88 568.135 293.25 570.504C295.62 572.874 297.989 575.244 301.544 577.614C303.914 570.504 305.098 563.395 302.729 556.286C301.544 549.177 297.989 544.438 293.25 539.698C288.511 546.808 286.141 553.917 288.511 561.026ZM294.435 589.462C290.88 588.277 287.326 587.092 283.771 587.092C280.217 587.092 276.662 587.092 271.923 588.277C263.629 589.462 257.705 594.201 252.965 598.941C260.074 603.68 268.368 604.865 276.662 602.495C284.956 600.126 290.88 595.386 294.435 589.462ZM256.52 537.329C256.52 540.883 257.705 544.438 258.889 547.992C260.074 551.547 262.444 553.917 264.814 556.286C268.368 550.362 270.738 543.253 270.738 536.144C270.738 529.035 268.368 523.111 263.629 518.371C258.889 523.111 256.52 530.22 256.52 537.329ZM216.235 568.135C222.159 574.059 230.453 576.429 238.747 576.429C247.041 576.429 252.965 572.874 257.705 566.95C254.15 564.58 251.78 563.395 248.226 562.211C244.671 561.026 241.117 561.026 236.377 561.026C228.083 561.026 220.974 563.395 216.235 568.135ZM244.671 499.414C244.671 498.229 243.486 495.859 243.486 494.674C243.486 493.489 242.302 492.304 241.117 491.12C235.192 495.859 231.638 501.783 230.453 508.892C229.268 512.447 230.453 516.001 230.453 519.556C231.638 523.111 232.823 525.48 235.192 529.035C239.932 524.295 243.486 517.186 244.671 510.077V499.414ZM204.386 543.253C212.68 544.438 219.789 542.068 225.714 537.329C223.344 534.959 219.789 532.589 216.235 531.405C212.68 529.035 209.126 527.85 205.571 527.85C197.277 526.665 190.168 527.85 184.244 531.405C185.429 532.589 186.614 534.959 188.983 536.144C190.168 537.329 192.538 538.514 193.723 539.698C196.092 540.883 200.832 542.068 204.386 543.253ZM207.941 485.195C207.941 488.75 209.126 492.304 210.311 494.674C216.235 491.12 220.974 485.195 223.344 478.086C224.529 474.532 225.714 470.977 225.714 468.608V463.868C225.714 462.683 225.714 460.314 224.529 459.129C218.605 462.683 212.68 467.423 210.311 474.532C207.941 478.086 207.941 481.641 207.941 485.195ZM167.656 497.044C171.211 499.414 173.58 501.783 178.32 502.968C186.614 505.338 193.723 504.153 199.647 501.783C197.277 498.229 194.908 495.859 192.538 493.489C190.168 491.12 186.614 488.75 183.059 487.565C175.95 485.195 167.656 484.011 161.732 486.38C162.917 488.75 164.101 489.935 165.286 491.12C164.101 494.674 166.471 495.859 167.656 497.044ZM192.538 448.465C192.538 452.02 192.538 455.574 193.723 459.129C199.647 456.759 205.571 450.835 209.126 444.911C212.68 438.986 213.865 431.877 212.68 425.953C205.571 428.323 199.647 431.877 196.092 437.801C193.723 441.356 192.538 444.911 192.538 448.465ZM145.144 441.356C147.514 449.65 152.253 456.759 159.362 460.314C166.471 463.868 173.58 465.053 180.689 462.683C179.505 459.129 177.135 455.574 174.765 453.205C172.395 450.835 170.026 447.28 166.471 446.095C159.362 441.356 152.253 440.171 145.144 441.356ZM184.244 408.18C183.059 411.735 183.059 415.289 183.059 418.844C190.168 417.659 196.092 414.105 200.832 408.18C203.202 405.811 205.571 402.256 206.756 399.886C207.941 398.701 207.941 397.517 207.941 395.147C207.941 393.962 209.126 391.592 209.126 390.408C205.571 390.408 202.017 391.592 198.462 392.777C194.908 393.962 192.538 396.332 190.168 398.701C186.614 402.256 185.429 405.811 184.244 408.18ZM140.405 398.701C140.405 401.071 141.589 402.256 142.774 404.626C143.959 408.18 146.329 411.735 149.883 414.104C155.808 420.029 162.917 421.214 170.026 421.214L166.471 410.55C164.102 406.995 162.917 404.626 159.362 401.071C156.992 398.701 153.438 396.332 149.883 395.147C146.329 393.962 142.774 392.777 139.22 392.777C139.22 395.147 139.22 396.332 140.405 398.701ZM180.689 377.374C184.244 377.374 187.798 376.189 191.353 375.004C194.908 373.82 198.462 372.635 200.832 370.265L207.941 363.156C209.126 361.971 209.126 360.786 210.311 359.601C211.495 358.417 211.495 357.232 211.495 354.862H200.832C197.277 356.047 193.723 357.232 191.353 359.601L187.798 363.156C186.614 364.341 185.429 365.526 184.244 367.895C181.874 371.45 180.689 373.82 180.689 377.374ZM142.774 344.198V350.123C142.774 352.492 142.774 353.677 143.959 356.047C145.144 359.601 146.329 363.156 148.698 366.711C151.068 370.265 154.623 372.635 156.992 373.82L167.656 377.374C167.656 373.82 166.471 370.265 165.286 366.711C165.286 364.341 164.102 363.156 162.917 361.971C161.732 360.786 160.547 358.417 160.547 357.232C158.177 353.677 155.808 351.308 152.253 348.938C149.883 346.568 146.329 344.198 142.774 344.198ZM191.353 327.611C190.168 328.795 188.983 329.98 187.798 332.35C186.614 333.535 186.614 335.904 185.429 337.089C188.983 338.274 192.538 338.274 196.092 337.089C199.647 337.089 203.202 335.904 206.756 333.535C210.311 332.35 212.68 329.98 215.05 327.611C217.42 325.241 218.605 322.871 219.789 320.501C212.68 318.132 205.571 318.132 198.462 321.686C197.277 321.686 197.277 322.871 196.092 322.871C194.908 322.871 194.908 324.056 193.723 324.056C193.723 325.241 192.538 326.426 191.353 327.611ZM153.438 308.653C153.438 312.208 154.623 316.947 156.992 320.501C158.177 324.056 161.732 327.611 164.102 329.98C166.471 332.35 170.026 333.535 173.58 334.72V328.795V324.056C173.58 321.686 172.395 320.501 172.395 318.132C172.395 316.947 172.395 315.762 171.211 315.762C171.211 314.577 170.026 313.392 170.026 313.392C166.471 306.283 161.732 300.359 154.623 297.989C154.623 300.359 153.438 303.914 153.438 308.653ZM202.017 294.435C200.832 295.62 199.647 296.805 199.647 299.174C206.756 301.544 213.865 301.544 220.974 300.359C224.529 299.174 228.083 297.989 230.453 296.804C232.823 295.62 235.192 293.25 237.562 290.88C231.638 287.326 224.529 286.141 217.42 287.326C213.865 288.511 210.311 289.695 207.941 292.065C204.386 290.88 203.201 293.25 202.017 294.435ZM173.58 263.629C173.58 267.183 173.58 271.923 174.765 275.477C177.135 283.771 181.874 288.511 187.798 292.065C188.983 290.88 188.983 288.511 188.983 287.326C188.983 284.956 190.168 283.771 190.168 281.401C190.168 277.847 190.168 274.292 188.983 269.553C187.798 262.444 183.059 255.335 177.135 251.78C174.765 256.52 173.58 260.074 173.58 263.629ZM228.083 256.52C224.529 257.705 222.159 260.074 219.789 262.444C225.714 265.998 232.823 268.368 239.932 267.183C247.041 267.183 252.965 263.629 257.705 260.074C251.78 255.335 245.856 252.965 237.562 252.965C234.008 254.15 230.453 254.15 228.083 256.52ZM206.756 213.865C202.017 219.789 198.462 228.083 199.647 236.377C200.832 244.671 204.386 250.595 209.126 255.335C211.495 251.78 212.68 249.411 213.865 244.671C215.05 241.117 215.05 237.562 215.05 232.823C215.05 225.714 211.495 218.605 206.756 213.865ZM388.038 706.762C564.58 706.762 707.947 563.395 707.947 386.853C707.947 210.311 564.58 66.9439 388.038 66.9439C211.495 66.9439 68.1288 210.311 68.1288 386.853C68.1288 563.395 211.495 706.762 388.038 706.762ZM388.038 697.283C559.841 697.283 698.468 557.471 698.468 386.853C698.468 216.235 559.841 76.4227 388.038 76.4227C216.235 76.4227 77.6076 215.05 77.6076 386.853C77.6076 558.656 216.235 697.283 388.038 697.283ZM421.214 12.4409C402.256 -4.14697 373.82 -4.14697 354.862 12.4409L341.829 24.2894C328.795 36.1379 309.838 39.6924 292.065 33.7682L275.477 27.8439C251.78 19.55 225.714 30.2136 213.865 53.9106L205.571 69.3136C197.277 85.9015 181.874 96.5651 164.102 97.75L146.329 98.9348C121.447 101.305 101.305 120.262 98.9348 146.329L97.75 164.101C96.5651 181.874 85.9015 198.462 69.3136 205.571L53.9106 213.865C31.3985 225.714 20.7348 251.78 27.8439 275.477L33.7682 292.065C39.6924 308.653 36.1379 327.611 24.2894 341.829L12.4409 354.862C-4.14697 373.82 -4.14697 402.256 12.4409 421.214L24.2894 434.247C36.1379 447.28 39.6924 466.238 33.7682 484.011L27.8439 500.598C19.55 524.295 30.2136 550.362 53.9106 562.211L69.3136 570.504C85.9015 578.798 96.5651 594.201 97.75 611.974L98.9348 629.747C101.305 654.629 120.262 674.771 146.329 677.141L164.102 678.326C181.874 679.51 198.462 690.174 205.571 706.762L213.865 722.165C225.714 744.677 251.78 755.341 275.477 748.232L292.065 742.308C308.653 736.383 327.611 739.938 341.829 751.786L354.862 763.635C373.82 780.223 402.256 780.223 421.214 763.635L434.247 751.786C447.28 739.938 466.238 736.383 484.011 742.308L500.598 748.232C524.295 756.526 550.362 745.862 562.211 722.165L570.505 706.762C578.798 690.174 594.202 679.51 611.974 678.326L629.747 677.141C654.629 674.771 674.771 655.814 677.141 629.747L678.326 611.974C679.511 594.201 690.174 577.614 706.762 570.504L722.165 562.211C744.677 550.362 755.341 524.295 748.232 500.598L742.308 484.011C736.383 467.423 739.938 448.465 751.786 434.247L763.635 421.214C780.223 402.256 780.223 373.82 763.635 354.862L751.786 341.829C739.938 328.795 736.383 309.838 742.308 292.065L748.232 275.477C756.526 251.78 745.862 225.714 722.165 213.865L706.762 205.571C690.174 197.277 679.511 181.874 678.326 164.101L677.141 146.329C674.771 121.447 655.814 101.305 629.747 98.9348L611.974 97.75C594.202 96.5651 577.614 85.9015 570.505 69.3136L562.211 53.9106C550.362 31.3985 524.295 20.7348 500.598 27.8439L484.011 33.7682C467.423 39.6924 448.465 36.1379 434.247 24.2894L421.214 12.4409ZM428.323 31.3985L415.289 19.55C399.886 5.33182 376.189 5.33182 360.786 19.55L347.753 31.3985C332.35 45.6167 309.838 49.1712 289.695 43.247L273.108 37.3227C252.965 30.2136 231.638 39.6924 222.159 58.65L213.865 74.053C204.386 93.0106 185.429 104.859 165.286 107.229L147.514 108.414C127.371 109.598 110.783 126.186 108.414 146.329L107.229 164.101C106.044 185.429 93.0106 204.386 74.053 212.68L58.65 220.974C39.6924 230.453 31.3985 251.78 37.3227 271.923L43.247 288.511C50.3561 308.653 45.6167 329.98 31.3985 346.568L19.55 359.601C6.51667 375.005 6.51667 398.701 20.7348 414.104L32.5833 427.138C46.8015 442.541 50.3561 465.053 44.4318 485.195L38.5076 501.783C31.3985 521.926 40.8773 543.253 59.8348 552.732L75.2379 561.026C94.1954 570.505 106.044 589.462 108.414 609.604L109.598 627.377C110.783 648.704 127.371 665.292 148.698 666.477L166.471 667.662C187.798 668.847 206.756 681.88 215.05 700.838L223.344 716.241C232.823 735.198 254.15 743.492 274.292 737.568L290.88 731.644C311.023 724.535 332.35 729.274 348.938 743.492L361.971 755.341C377.374 769.559 401.071 769.559 416.474 755.341L429.508 743.492C444.911 729.274 467.423 725.72 487.565 731.644L504.153 737.568C524.295 744.677 545.623 735.198 555.101 716.241L563.395 700.838C572.874 681.88 591.832 670.032 611.974 667.662L629.747 666.477C651.074 665.292 667.662 648.704 668.847 627.377L670.032 609.604C671.217 588.277 684.25 569.32 703.208 561.026L718.611 552.732C737.568 543.253 745.862 521.926 739.938 501.783L734.014 485.195C726.905 465.053 731.644 443.726 745.862 427.138L757.711 414.104C771.929 398.701 771.929 375.005 757.711 359.601L745.862 346.568C731.644 331.165 728.089 308.653 734.014 288.511L739.938 271.923C747.047 251.78 737.568 230.453 718.611 220.974L703.208 212.68C684.25 203.201 672.401 184.244 670.032 164.101L668.847 146.329C665.292 126.186 648.704 109.598 628.562 107.229L610.789 106.044C589.462 104.859 570.505 91.8257 562.211 72.8682L553.917 57.4651C544.438 38.5076 523.111 30.2136 502.968 36.1379L486.38 42.0621C466.238 49.1712 444.911 44.4318 428.323 31.3985Z" fill="url(#paint0_linear_281_20551)"/>
<path d="M345.24 167.121C352.606 167.121 358.07 162.679 358.07 154.332V131H351.435V154.722C351.435 158.237 348.655 160.97 345.191 160.97C341.679 160.97 339.045 158.237 339.045 154.722V131H332.411V154.332C332.411 162.679 337.825 167.121 345.24 167.121Z" fill="url(#paint1_linear_281_20551)"/>
<path d="M364.415 166.633H371.049V131H364.415V166.633Z" fill="url(#paint2_linear_281_20551)"/>
<path d="M375.934 166.633H382.958L399.837 131H392.812L375.934 166.633Z" fill="url(#paint3_linear_281_20551)"/>
<path d="M417.174 167.121C424.54 167.121 430.004 162.679 430.004 154.332V131H423.369V154.722C423.369 158.237 420.589 160.97 417.125 160.97C413.613 160.97 410.979 158.237 410.979 154.722V131H404.345V154.332C404.345 162.679 409.759 167.121 417.174 167.121Z" fill="url(#paint4_linear_281_20551)"/>
<path d="M456.599 166.633H464.013L453.086 148.621L463.818 131H456.355L449.184 142.861L442.013 131H434.598L445.232 148.621L434.354 166.633H441.818L449.184 154.381L456.599 166.633Z" fill="url(#paint5_linear_281_20551)"/>
<path d="M282.634 219.512V208.627H288.586L294.293 219.512H301.854L294.732 206.674C298.635 204.575 300.732 200.573 300.732 196.278C300.732 188.907 295.805 183.879 287.415 183.879H276V219.512H282.634ZM282.634 202.525V190.078H286.83C291.903 190.078 294.098 192.373 294.098 196.033C294.098 199.548 292.293 202.525 286.83 202.525H282.634Z" fill="url(#paint6_linear_281_20551)"/>
<path d="M306.52 219.512H327.643V213.166H313.155V204.771H327.643V198.425H313.155V190.225H327.643V183.879H306.52V219.512Z" fill="url(#paint7_linear_281_20551)"/>
<path d="M345.373 220C353.178 220 357.666 214.533 357.666 208.92C357.666 202.086 352.202 199.938 347.373 198.376C343.47 197.058 340.104 196.229 340.104 193.349C340.104 191.055 341.812 189.297 345.08 189.297C347.861 189.297 350.007 190.42 351.519 192.714L356.983 188.565C354.105 185.588 350.739 183.391 345.031 183.391C338.202 183.391 333.226 187.882 333.226 193.593C333.226 200.378 338.495 202.184 343.324 203.746C347.08 204.917 350.739 205.893 350.739 208.871C350.739 211.36 348.836 213.654 345.324 213.654C342.056 213.654 339.324 211.946 337.519 208.822L331.47 213.606C334.738 217.267 338.982 220 345.373 220Z" fill="url(#paint8_linear_281_20551)"/>
<path d="M362.892 219.512H384.015V213.166H369.527V204.771H384.015V198.425H369.527V190.225H384.015V183.879H362.892V219.512Z" fill="url(#paint9_linear_281_20551)"/>
<path d="M388.427 219.512H395.354L397.55 213.166H411.355L413.55 219.512H420.477L407.794 183.879H401.111L388.427 219.512ZM404.477 193.3L409.16 206.821H399.794L404.477 193.3Z" fill="url(#paint10_linear_281_20551)"/>
<path d="M431.901 219.512V208.627H437.853L443.56 219.512H451.121L443.999 206.674C447.902 204.575 449.999 200.573 449.999 196.278C449.999 188.907 445.072 183.879 436.682 183.879H425.267V219.512H431.901ZM431.901 202.525V190.078H436.096C441.17 190.078 443.365 192.373 443.365 196.033C443.365 199.548 441.56 202.525 436.096 202.525H431.901Z" fill="url(#paint11_linear_281_20551)"/>
<path d="M473.343 220C480.367 220 486.368 215.9 489.49 209.847L483.441 206.674C481.538 210.579 478.123 213.362 473.196 213.362C466.562 213.362 461.635 208.188 461.635 201.696C461.635 195.057 466.562 189.932 473.343 189.932C477.977 189.932 481.05 192.226 483.148 195.936L488.953 192.226C485.831 186.906 480.026 183.391 473.343 183.391C463.05 183.391 455.05 191.055 455.05 201.696C455.05 211.848 462.367 220 473.343 220Z" fill="url(#paint12_linear_281_20551)"/>
<path d="M514.366 219.512H521V183.879H514.366V198.474H500.707V183.879H494.073V219.512H500.707V204.82H514.366V219.512Z" fill="url(#paint13_linear_281_20551)"/>
<path d="M503.677 339.859C508.554 349.649 512.1 360.048 514.217 370.779C515.134 375.417 515.823 380.086 516.361 384.794C516.947 390.266 517.13 395.773 516.91 401.271C516.288 420.146 511.521 438.654 502.948 455.481C500.514 460.274 497.772 464.905 494.741 469.345C476.228 496.626 448 515.809 415.823 522.977C407.818 524.779 399.654 525.781 391.451 525.969C390.187 526.016 388.942 526 387.698 525.984C387.078 525.976 386.458 525.969 385.837 525.969C353.625 525.545 322.757 512.99 299.389 490.81C288.821 480.827 280.003 469.141 273.302 456.239C267.433 444.92 263.302 432.782 261.047 420.232C259.96 414.138 259.294 407.975 259.052 401.789C258.983 399.046 258.983 396.344 259.052 393.64C259.176 388.923 259.556 384.214 260.189 379.537C261.548 369.408 264.109 359.476 267.818 349.953C267.884 349.832 267.957 349.716 268.037 349.604C271.507 351.559 275.187 353.115 279.006 354.242C284.776 355.951 290.802 356.627 296.807 356.237C310.229 355.528 322.846 349.614 331.978 339.75C339.038 332.37 343.703 323.028 345.36 312.949C345.919 309.738 346.19 306.483 346.168 303.224C346.139 294.534 343.891 285.995 339.636 278.418C339.487 278.139 339.337 277.86 339.128 277.51L339.238 277.464C340.392 276.983 341.456 276.54 342.548 276.134C350.164 273.246 358.047 271.117 366.083 269.78C370.27 269.112 374.469 268.583 378.697 268.334C383.443 268.055 388.221 267.915 392.997 268.055C396.986 268.145 400.974 268.563 404.963 269.052C416.289 270.488 427.362 273.478 437.871 277.939C450.188 283.091 461.61 290.16 471.716 298.885C485.04 310.231 495.915 324.172 503.677 339.859Z" stroke="url(#paint14_linear_281_20551)" stroke-width="10" stroke-linejoin="round"/>
<path d="M387.5 448C415.943 448 439 424.943 439 396.5C439 368.057 415.943 345 387.5 345C359.057 345 336 368.057 336 396.5C336 424.943 359.057 448 387.5 448Z" stroke="url(#paint15_linear_281_20551)" stroke-width="10"/>
<defs>
<linearGradient id="paint0_linear_281_20551" x1="652.5" y1="127.5" x2="112.5" y2="662" gradientUnits="userSpaceOnUse">
<stop stop-color="#666565"/>
<stop offset="0.21875" stop-color="#CBC9C9"/>
<stop offset="0.552083" stop-color="#747171"/>
<stop offset="0.786458" stop-color="#ADABAB"/>
<stop offset="1" stop-color="#858484"/>
</linearGradient>
<linearGradient id="paint1_linear_281_20551" x1="590.032" y1="193.032" x2="494.197" y2="375.663" gradientUnits="userSpaceOnUse">
<stop stop-color="#666565"/>
<stop offset="0.328125" stop-color="#CBC9C9"/>
<stop offset="0.947917" stop-color="#747171"/>
</linearGradient>
<linearGradient id="paint2_linear_281_20551" x1="590.032" y1="193.032" x2="494.197" y2="375.663" gradientUnits="userSpaceOnUse">
<stop stop-color="#666565"/>
<stop offset="0.328125" stop-color="#CBC9C9"/>
<stop offset="0.947917" stop-color="#747171"/>
</linearGradient>
<linearGradient id="paint3_linear_281_20551" x1="590.032" y1="193.032" x2="494.197" y2="375.663" gradientUnits="userSpaceOnUse">
<stop stop-color="#666565"/>
<stop offset="0.328125" stop-color="#CBC9C9"/>
<stop offset="0.947917" stop-color="#747171"/>
</linearGradient>
<linearGradient id="paint4_linear_281_20551" x1="590.032" y1="193.032" x2="494.197" y2="375.663" gradientUnits="userSpaceOnUse">
<stop stop-color="#666565"/>
<stop offset="0.328125" stop-color="#CBC9C9"/>
<stop offset="0.947917" stop-color="#747171"/>
</linearGradient>
<linearGradient id="paint5_linear_281_20551" x1="590.032" y1="193.032" x2="494.197" y2="375.663" gradientUnits="userSpaceOnUse">
<stop stop-color="#666565"/>
<stop offset="0.328125" stop-color="#CBC9C9"/>
<stop offset="0.947917" stop-color="#747171"/>
</linearGradient>
<linearGradient id="paint6_linear_281_20551" x1="590.032" y1="193.032" x2="494.197" y2="375.663" gradientUnits="userSpaceOnUse">
<stop stop-color="#666565"/>
<stop offset="0.328125" stop-color="#CBC9C9"/>
<stop offset="0.947917" stop-color="#747171"/>
</linearGradient>
<linearGradient id="paint7_linear_281_20551" x1="590.032" y1="193.032" x2="494.197" y2="375.663" gradientUnits="userSpaceOnUse">
<stop stop-color="#666565"/>
<stop offset="0.328125" stop-color="#CBC9C9"/>
<stop offset="0.947917" stop-color="#747171"/>
</linearGradient>
<linearGradient id="paint8_linear_281_20551" x1="590.032" y1="193.032" x2="494.197" y2="375.663" gradientUnits="userSpaceOnUse">
<stop stop-color="#666565"/>
<stop offset="0.328125" stop-color="#CBC9C9"/>
<stop offset="0.947917" stop-color="#747171"/>
</linearGradient>
<linearGradient id="paint9_linear_281_20551" x1="590.032" y1="193.032" x2="494.197" y2="375.663" gradientUnits="userSpaceOnUse">
<stop stop-color="#666565"/>
<stop offset="0.328125" stop-color="#CBC9C9"/>
<stop offset="0.947917" stop-color="#747171"/>
</linearGradient>
<linearGradient id="paint10_linear_281_20551" x1="590.032" y1="193.032" x2="494.197" y2="375.663" gradientUnits="userSpaceOnUse">
<stop stop-color="#666565"/>
<stop offset="0.328125" stop-color="#CBC9C9"/>
<stop offset="0.947917" stop-color="#747171"/>
</linearGradient>
<linearGradient id="paint11_linear_281_20551" x1="590.032" y1="193.032" x2="494.197" y2="375.663" gradientUnits="userSpaceOnUse">
<stop stop-color="#666565"/>
<stop offset="0.328125" stop-color="#CBC9C9"/>
<stop offset="0.947917" stop-color="#747171"/>
</linearGradient>
<linearGradient id="paint12_linear_281_20551" x1="590.032" y1="193.032" x2="494.197" y2="375.663" gradientUnits="userSpaceOnUse">
<stop stop-color="#666565"/>
<stop offset="0.328125" stop-color="#CBC9C9"/>
<stop offset="0.947917" stop-color="#747171"/>
</linearGradient>
<linearGradient id="paint13_linear_281_20551" x1="590.032" y1="193.032" x2="494.197" y2="375.663" gradientUnits="userSpaceOnUse">
<stop stop-color="#666565"/>
<stop offset="0.328125" stop-color="#CBC9C9"/>
<stop offset="0.947917" stop-color="#747171"/>
</linearGradient>
<linearGradient id="paint14_linear_281_20551" x1="617.5" y1="202" x2="317.5" y2="604" gradientUnits="userSpaceOnUse">
<stop stop-color="#666565"/>
<stop offset="0.442708" stop-color="#CBC9C9"/>
<stop offset="0.947917" stop-color="#747171"/>
</linearGradient>
<linearGradient id="paint15_linear_281_20551" x1="599.5" y1="240.5" x2="256.5" y2="520.5" gradientUnits="userSpaceOnUse">
<stop stop-color="#666565"/>
<stop offset="0.442708" stop-color="#CBC9C9"/>
<stop offset="0.947917" stop-color="#747171"/>
</linearGradient>
</defs>
</svg>
